<mxfile host="app.diagrams.net" modified="2023-05-07T07:31:51.545Z" agent="Mozilla/5.0 (Windows NT 10.0; Win64; x64; rv:109.0) Gecko/20100101 Firefox/112.0" etag="6QI-RayA6jWhOUEhemDR" version="21.2.9" type="github">
  <diagram id="C5RBs43oDa-KdzZeNtuy" name="Page-1">
    <mxGraphModel dx="1912" dy="1043" grid="1" gridSize="10" guides="1" tooltips="1" connect="1" arrows="1" fold="1" page="1" pageScale="1" pageWidth="4500" pageHeight="4500" math="0" shadow="0">
      <root>
        <mxCell id="WIyWlLk6GJQsqaUBKTNV-0" />
        <mxCell id="WIyWlLk6GJQsqaUBKTNV-1" parent="WIyWlLk6GJQsqaUBKTNV-0" />
        <mxCell id="oJ_CcM2kpAITmd0sQEhz-0" value="«interface»&lt;br&gt;&lt;b&gt;IItem&lt;/b&gt;" style="html=1;whiteSpace=wrap;" parent="WIyWlLk6GJQsqaUBKTNV-1" vertex="1">
          <mxGeometry x="3290" y="510" width="110" height="50" as="geometry" />
        </mxCell>
        <mxCell id="oJ_CcM2kpAITmd0sQEhz-1" value="&lt;div&gt;Маркерный &lt;br&gt;&lt;/div&gt;&lt;div&gt;интерфейс&lt;/div&gt;" style="shape=note;whiteSpace=wrap;html=1;backgroundOutline=1;darkOpacity=0.05;fillOpacity=100;size=15;" parent="WIyWlLk6GJQsqaUBKTNV-1" vertex="1">
          <mxGeometry x="3295" y="470" width="100" height="40" as="geometry" />
        </mxCell>
        <mxCell id="oJ_CcM2kpAITmd0sQEhz-3" value="&lt;div&gt;&amp;lt;&amp;lt;abstract&amp;gt;&amp;gt;&lt;/div&gt;&lt;div&gt;Traits&lt;br&gt;&lt;/div&gt;" style="swimlane;fontStyle=1;align=center;verticalAlign=top;childLayout=stackLayout;horizontal=1;startSize=40;horizontalStack=0;resizeParent=1;resizeParentMax=0;resizeLast=0;collapsible=1;marginBottom=0;whiteSpace=wrap;html=1;" parent="WIyWlLk6GJQsqaUBKTNV-1" vertex="1">
          <mxGeometry x="3240" y="330" width="195" height="98" as="geometry" />
        </mxCell>
        <mxCell id="oJ_CcM2kpAITmd0sQEhz-4" value="&lt;div&gt;+ Weight: int&lt;/div&gt;&lt;div&gt;&lt;div&gt;+ Capacity: int&lt;/div&gt;&lt;div&gt;+ Name: string&lt;br&gt;&lt;br&gt;&lt;/div&gt;&lt;/div&gt;" style="text;strokeColor=none;fillColor=none;align=left;verticalAlign=top;spacingLeft=4;spacingRight=4;overflow=hidden;rotatable=0;points=[[0,0.5],[1,0.5]];portConstraint=eastwest;whiteSpace=wrap;html=1;" parent="oJ_CcM2kpAITmd0sQEhz-3" vertex="1">
          <mxGeometry y="40" width="195" height="50" as="geometry" />
        </mxCell>
        <mxCell id="oJ_CcM2kpAITmd0sQEhz-5" value="" style="line;strokeWidth=1;fillColor=none;align=left;verticalAlign=middle;spacingTop=-1;spacingLeft=3;spacingRight=3;rotatable=0;labelPosition=right;points=[];portConstraint=eastwest;strokeColor=inherit;" parent="oJ_CcM2kpAITmd0sQEhz-3" vertex="1">
          <mxGeometry y="90" width="195" height="8" as="geometry" />
        </mxCell>
        <mxCell id="oJ_CcM2kpAITmd0sQEhz-11" value="&lt;div&gt;&lt;b&gt;Примечание:&lt;/b&gt;&lt;/div&gt;&lt;div&gt;&lt;b&gt;публичные поля на&lt;br&gt;самом деле представляют&lt;/b&gt;&lt;/div&gt;&lt;div&gt;&lt;b&gt;из себя свойства&lt;/b&gt;&lt;/div&gt;&lt;div&gt;&lt;b&gt;с &lt;/b&gt;&lt;b&gt;private/protected &lt;/b&gt;&lt;b&gt;set &lt;br&gt;&lt;/b&gt;&lt;/div&gt;&lt;div&gt;&lt;b&gt;(относится ко всей диаграмме)&lt;br&gt;&lt;/b&gt;&lt;/div&gt;" style="shape=note;whiteSpace=wrap;html=1;backgroundOutline=1;darkOpacity=0.05;size=17;fillColor=#f8cecc;strokeColor=#b85450;" parent="WIyWlLk6GJQsqaUBKTNV-1" vertex="1">
          <mxGeometry x="3227.5" y="80" width="190" height="120" as="geometry" />
        </mxCell>
        <mxCell id="oJ_CcM2kpAITmd0sQEhz-12" value="&lt;div&gt;&amp;lt;&amp;lt;abstract&amp;gt;&amp;gt;&lt;/div&gt;&lt;div&gt;NonSolidTraits&lt;br&gt;&lt;/div&gt;" style="swimlane;fontStyle=1;align=center;verticalAlign=top;childLayout=stackLayout;horizontal=1;startSize=40;horizontalStack=0;resizeParent=1;resizeParentMax=0;resizeLast=0;collapsible=1;marginBottom=0;whiteSpace=wrap;html=1;" parent="WIyWlLk6GJQsqaUBKTNV-1" vertex="1">
          <mxGeometry x="3535" y="330" width="160" height="144" as="geometry" />
        </mxCell>
        <mxCell id="oJ_CcM2kpAITmd0sQEhz-13" value="&lt;div&gt;# weightCapacityRatio: int&lt;/div&gt;&lt;div&gt;+ ContainerType: Type?&lt;br&gt;&lt;/div&gt;" style="text;strokeColor=none;fillColor=none;align=left;verticalAlign=top;spacingLeft=4;spacingRight=4;overflow=hidden;rotatable=0;points=[[0,0.5],[1,0.5]];portConstraint=eastwest;whiteSpace=wrap;html=1;" parent="oJ_CcM2kpAITmd0sQEhz-12" vertex="1">
          <mxGeometry y="40" width="160" height="70" as="geometry" />
        </mxCell>
        <mxCell id="oJ_CcM2kpAITmd0sQEhz-14" value="" style="line;strokeWidth=1;fillColor=none;align=left;verticalAlign=middle;spacingTop=-1;spacingLeft=3;spacingRight=3;rotatable=0;labelPosition=right;points=[];portConstraint=eastwest;strokeColor=inherit;" parent="oJ_CcM2kpAITmd0sQEhz-12" vertex="1">
          <mxGeometry y="110" width="160" height="8" as="geometry" />
        </mxCell>
        <mxCell id="oJ_CcM2kpAITmd0sQEhz-15" value="+ transfer(int): int" style="text;strokeColor=none;fillColor=none;align=left;verticalAlign=top;spacingLeft=4;spacingRight=4;overflow=hidden;rotatable=0;points=[[0,0.5],[1,0.5]];portConstraint=eastwest;whiteSpace=wrap;html=1;" parent="oJ_CcM2kpAITmd0sQEhz-12" vertex="1">
          <mxGeometry y="118" width="160" height="26" as="geometry" />
        </mxCell>
        <mxCell id="oJ_CcM2kpAITmd0sQEhz-18" value="&lt;div&gt;Предназначен для&lt;/div&gt;&lt;div&gt;ресурсов и предметов&lt;br&gt;&lt;/div&gt;&lt;div&gt;которые стакаются&lt;br&gt;&lt;/div&gt;" style="shape=note;whiteSpace=wrap;html=1;backgroundOutline=1;darkOpacity=0.05;size=18;" parent="WIyWlLk6GJQsqaUBKTNV-1" vertex="1">
          <mxGeometry x="3535" y="268" width="160" height="62" as="geometry" />
        </mxCell>
        <mxCell id="oJ_CcM2kpAITmd0sQEhz-22" value="" style="endArrow=block;html=1;rounded=0;exitX=-0.008;exitY=0.364;exitDx=0;exitDy=0;entryX=1;entryY=0.5;entryDx=0;entryDy=0;endFill=0;exitPerimeter=0;" parent="WIyWlLk6GJQsqaUBKTNV-1" source="oJ_CcM2kpAITmd0sQEhz-13" target="oJ_CcM2kpAITmd0sQEhz-4" edge="1">
          <mxGeometry width="50" height="50" relative="1" as="geometry">
            <mxPoint x="3445" y="430" as="sourcePoint" />
            <mxPoint x="3495" y="380" as="targetPoint" />
            <Array as="points" />
          </mxGeometry>
        </mxCell>
        <mxCell id="oJ_CcM2kpAITmd0sQEhz-24" value="&lt;div&gt;Предназначен для&lt;/div&gt;&lt;div&gt;предметов которые не стакаются&lt;/div&gt;" style="shape=note;whiteSpace=wrap;html=1;backgroundOutline=1;darkOpacity=0.05;size=18;" parent="WIyWlLk6GJQsqaUBKTNV-1" vertex="1">
          <mxGeometry x="3257.5" y="268" width="160" height="62" as="geometry" />
        </mxCell>
        <mxCell id="oJ_CcM2kpAITmd0sQEhz-27" value="&lt;div&gt;&amp;lt;&amp;lt;abstract&amp;gt;&amp;gt;&lt;/div&gt;&lt;div&gt;Resource&lt;br&gt;&lt;/div&gt;" style="swimlane;fontStyle=1;align=center;verticalAlign=top;childLayout=stackLayout;horizontal=1;startSize=40;horizontalStack=0;resizeParent=1;resizeParentMax=0;resizeLast=0;collapsible=1;marginBottom=0;whiteSpace=wrap;html=1;" parent="WIyWlLk6GJQsqaUBKTNV-1" vertex="1">
          <mxGeometry x="3500" y="550" width="250" height="100" as="geometry" />
        </mxCell>
        <mxCell id="oJ_CcM2kpAITmd0sQEhz-29" value="" style="line;strokeWidth=1;fillColor=none;align=left;verticalAlign=middle;spacingTop=-1;spacingLeft=3;spacingRight=3;rotatable=0;labelPosition=right;points=[];portConstraint=eastwest;strokeColor=inherit;" parent="oJ_CcM2kpAITmd0sQEhz-27" vertex="1">
          <mxGeometry y="40" width="250" height="8" as="geometry" />
        </mxCell>
        <mxCell id="oJ_CcM2kpAITmd0sQEhz-30" value="&lt;div&gt;+ virtual onTickFeature(int timeGap): void&lt;/div&gt;&lt;div&gt;+ virtual onEventFeature(): void&lt;/div&gt;" style="text;strokeColor=none;fillColor=none;align=left;verticalAlign=top;spacingLeft=4;spacingRight=4;overflow=hidden;rotatable=0;points=[[0,0.5],[1,0.5]];portConstraint=eastwest;whiteSpace=wrap;html=1;" parent="oJ_CcM2kpAITmd0sQEhz-27" vertex="1">
          <mxGeometry y="48" width="250" height="52" as="geometry" />
        </mxCell>
        <mxCell id="oJ_CcM2kpAITmd0sQEhz-31" value="" style="endArrow=block;html=1;rounded=0;exitX=0.5;exitY=0;exitDx=0;exitDy=0;entryX=0.56;entryY=0.979;entryDx=0;entryDy=0;entryPerimeter=0;endFill=0;" parent="WIyWlLk6GJQsqaUBKTNV-1" source="oJ_CcM2kpAITmd0sQEhz-27" target="oJ_CcM2kpAITmd0sQEhz-15" edge="1">
          <mxGeometry width="50" height="50" relative="1" as="geometry">
            <mxPoint x="3590" y="550" as="sourcePoint" />
            <mxPoint x="3640" y="500" as="targetPoint" />
          </mxGeometry>
        </mxCell>
        <mxCell id="oJ_CcM2kpAITmd0sQEhz-32" value="&lt;div&gt;По дефолту методы не имеют&lt;/div&gt;&lt;div&gt;реализации, &lt;br&gt;&lt;/div&gt;&lt;div&gt;работает OnTick/реагирует на события&lt;/div&gt;&lt;div&gt;Подписывается на события в конструкторе&lt;br&gt;&lt;/div&gt;" style="shape=note;whiteSpace=wrap;html=1;backgroundOutline=1;darkOpacity=0.05;size=16;" parent="WIyWlLk6GJQsqaUBKTNV-1" vertex="1">
          <mxGeometry x="3770" y="560" width="200" height="90" as="geometry" />
        </mxCell>
        <mxCell id="oJ_CcM2kpAITmd0sQEhz-35" value="&lt;p style=&quot;margin:0px;margin-top:4px;text-align:center;&quot;&gt;&lt;b&gt;FoodResource&lt;/b&gt;&lt;br&gt;&lt;/p&gt;&lt;hr size=&quot;1&quot;&gt;&lt;div style=&quot;height:2px;&quot;&gt;&lt;/div&gt;&lt;hr size=&quot;1&quot;&gt;&lt;div align=&quot;center&quot;&gt;+ onTickFeature(): void&lt;/div&gt;" style="verticalAlign=top;align=left;overflow=fill;fontSize=12;fontFamily=Helvetica;html=1;whiteSpace=wrap;" parent="WIyWlLk6GJQsqaUBKTNV-1" vertex="1">
          <mxGeometry x="3500" y="1040" width="140" height="70" as="geometry" />
        </mxCell>
        <mxCell id="oJ_CcM2kpAITmd0sQEhz-36" value="" style="endArrow=block;html=1;rounded=0;exitX=1;exitY=0.5;exitDx=0;exitDy=0;entryX=0.756;entryY=1.026;entryDx=0;entryDy=0;entryPerimeter=0;endFill=0;" parent="WIyWlLk6GJQsqaUBKTNV-1" source="oJ_CcM2kpAITmd0sQEhz-40" target="oJ_CcM2kpAITmd0sQEhz-30" edge="1">
          <mxGeometry width="50" height="50" relative="1" as="geometry">
            <mxPoint x="3620" y="760" as="sourcePoint" />
            <mxPoint x="3670" y="710" as="targetPoint" />
            <Array as="points">
              <mxPoint x="3690" y="720" />
            </Array>
          </mxGeometry>
        </mxCell>
        <mxCell id="oJ_CcM2kpAITmd0sQEhz-37" value="&lt;p style=&quot;margin:0px;margin-top:4px;text-align:center;&quot;&gt;&lt;b&gt;WaterResource&lt;/b&gt;&lt;br&gt;&lt;/p&gt;&lt;hr size=&quot;1&quot;&gt;&lt;hr size=&quot;1&quot;&gt;&lt;div style=&quot;height:2px;&quot; align=&quot;center&quot;&gt;+ onEventFeature(): void&lt;/div&gt;" style="verticalAlign=top;align=left;overflow=fill;fontSize=12;fontFamily=Helvetica;html=1;whiteSpace=wrap;" parent="WIyWlLk6GJQsqaUBKTNV-1" vertex="1">
          <mxGeometry x="3500" y="780" width="140" height="70" as="geometry" />
        </mxCell>
        <mxCell id="oJ_CcM2kpAITmd0sQEhz-38" value="&lt;p style=&quot;margin: 4px 0px 0px;&quot; align=&quot;center&quot;&gt;&lt;b&gt;OilResource&lt;/b&gt;&lt;br&gt;&lt;/p&gt;&lt;hr size=&quot;1&quot; align=&quot;left&quot;&gt;&lt;hr size=&quot;1&quot; align=&quot;left&quot;&gt;&lt;div style=&quot;height:2px;&quot; align=&quot;center&quot;&gt;+ onEventFeature(): void&lt;/div&gt;" style="verticalAlign=top;align=left;overflow=fill;fontSize=12;fontFamily=Helvetica;html=1;whiteSpace=wrap;" parent="WIyWlLk6GJQsqaUBKTNV-1" vertex="1">
          <mxGeometry x="3500" y="870" width="140" height="60" as="geometry" />
        </mxCell>
        <mxCell id="oJ_CcM2kpAITmd0sQEhz-39" value="&lt;p style=&quot;margin:0px;margin-top:4px;text-align:center;&quot;&gt;&lt;b&gt;MineralResource&lt;/b&gt;&lt;br&gt;&lt;/p&gt;&lt;hr size=&quot;1&quot;&gt;&lt;div style=&quot;height:2px;&quot;&gt;&lt;/div&gt;&lt;hr size=&quot;1&quot;&gt;&lt;div style=&quot;height:2px;&quot;&gt;&lt;/div&gt;" style="verticalAlign=top;align=left;overflow=fill;fontSize=12;fontFamily=Helvetica;html=1;whiteSpace=wrap;" parent="WIyWlLk6GJQsqaUBKTNV-1" vertex="1">
          <mxGeometry x="3500" y="960" width="140" height="60" as="geometry" />
        </mxCell>
        <mxCell id="oJ_CcM2kpAITmd0sQEhz-40" value="&lt;p style=&quot;margin:0px;margin-top:4px;text-align:center;&quot;&gt;&lt;b&gt;MaterialResource&lt;/b&gt;&lt;br&gt;&lt;/p&gt;&lt;hr size=&quot;1&quot;&gt;&lt;div style=&quot;height:2px;&quot;&gt;&lt;/div&gt;&lt;hr size=&quot;1&quot;&gt;&lt;div style=&quot;height:2px;&quot;&gt;&lt;/div&gt;" style="verticalAlign=top;align=left;overflow=fill;fontSize=12;fontFamily=Helvetica;html=1;whiteSpace=wrap;" parent="WIyWlLk6GJQsqaUBKTNV-1" vertex="1">
          <mxGeometry x="3500" y="690" width="140" height="60" as="geometry" />
        </mxCell>
        <mxCell id="oJ_CcM2kpAITmd0sQEhz-41" value="" style="endArrow=none;html=1;rounded=0;" parent="WIyWlLk6GJQsqaUBKTNV-1" edge="1">
          <mxGeometry width="50" height="50" relative="1" as="geometry">
            <mxPoint x="3640" y="810" as="sourcePoint" />
            <mxPoint x="3690" y="720" as="targetPoint" />
            <Array as="points">
              <mxPoint x="3690" y="810" />
            </Array>
          </mxGeometry>
        </mxCell>
        <mxCell id="oJ_CcM2kpAITmd0sQEhz-42" value="" style="endArrow=none;html=1;rounded=0;" parent="WIyWlLk6GJQsqaUBKTNV-1" edge="1">
          <mxGeometry width="50" height="50" relative="1" as="geometry">
            <mxPoint x="3640" y="900" as="sourcePoint" />
            <mxPoint x="3690" y="810" as="targetPoint" />
            <Array as="points">
              <mxPoint x="3690" y="900" />
            </Array>
          </mxGeometry>
        </mxCell>
        <mxCell id="oJ_CcM2kpAITmd0sQEhz-43" value="" style="endArrow=none;html=1;rounded=0;" parent="WIyWlLk6GJQsqaUBKTNV-1" edge="1">
          <mxGeometry width="50" height="50" relative="1" as="geometry">
            <mxPoint x="3640" y="990" as="sourcePoint" />
            <mxPoint x="3690" y="900" as="targetPoint" />
            <Array as="points">
              <mxPoint x="3690" y="990" />
            </Array>
          </mxGeometry>
        </mxCell>
        <mxCell id="oJ_CcM2kpAITmd0sQEhz-44" value="" style="endArrow=none;html=1;rounded=0;" parent="WIyWlLk6GJQsqaUBKTNV-1" edge="1">
          <mxGeometry width="50" height="50" relative="1" as="geometry">
            <mxPoint x="3640" y="1080" as="sourcePoint" />
            <mxPoint x="3690" y="990" as="targetPoint" />
            <Array as="points">
              <mxPoint x="3690" y="1080" />
            </Array>
          </mxGeometry>
        </mxCell>
        <mxCell id="oJ_CcM2kpAITmd0sQEhz-47" value="" style="endArrow=block;dashed=1;html=1;rounded=0;endFill=0;exitX=0;exitY=0.5;exitDx=0;exitDy=0;entryX=0.453;entryY=1.005;entryDx=0;entryDy=0;entryPerimeter=0;" parent="WIyWlLk6GJQsqaUBKTNV-1" source="oJ_CcM2kpAITmd0sQEhz-40" target="oJ_CcM2kpAITmd0sQEhz-0" edge="1">
          <mxGeometry width="50" height="50" relative="1" as="geometry">
            <mxPoint x="3300" y="780" as="sourcePoint" />
            <mxPoint x="3109" y="450" as="targetPoint" />
            <Array as="points">
              <mxPoint x="3340" y="720" />
            </Array>
          </mxGeometry>
        </mxCell>
        <mxCell id="oJ_CcM2kpAITmd0sQEhz-48" value="&lt;div&gt;Тип необходимого&lt;/div&gt;&lt;div&gt;контейнера задается в конструкторе по ум.&lt;br&gt; &lt;/div&gt;" style="shape=note;whiteSpace=wrap;html=1;backgroundOutline=1;darkOpacity=0.05;size=12;" parent="WIyWlLk6GJQsqaUBKTNV-1" vertex="1">
          <mxGeometry x="3695" y="380" width="135" height="58" as="geometry" />
        </mxCell>
        <mxCell id="oJ_CcM2kpAITmd0sQEhz-50" value="" style="endArrow=block;dashed=1;html=1;rounded=0;endFill=0;" parent="WIyWlLk6GJQsqaUBKTNV-1" edge="1">
          <mxGeometry width="50" height="50" relative="1" as="geometry">
            <mxPoint x="3180" y="540" as="sourcePoint" />
            <mxPoint x="3290" y="540" as="targetPoint" />
          </mxGeometry>
        </mxCell>
        <mxCell id="oJ_CcM2kpAITmd0sQEhz-51" value="&lt;p style=&quot;margin:0px;margin-top:4px;text-align:center;&quot;&gt;&lt;b&gt;&amp;lt;&amp;lt;abstract&amp;gt;&amp;gt;&lt;/b&gt;&lt;/p&gt;&lt;p style=&quot;margin:0px;margin-top:4px;text-align:center;&quot;&gt;&lt;b&gt;Container&lt;br&gt;&lt;/b&gt;&lt;/p&gt;&lt;hr size=&quot;1&quot;&gt;&lt;p style=&quot;margin:0px;margin-left:4px;&quot;&gt;# IResource resource&lt;/p&gt;&lt;hr size=&quot;1&quot;&gt;&lt;p style=&quot;margin:0px;margin-left:4px;&quot;&gt;+ fill(Container, int): void&lt;/p&gt;&lt;p style=&quot;margin:0px;margin-left:4px;&quot;&gt;+ withdraw(Container, int): void&lt;/p&gt;" style="verticalAlign=top;align=left;overflow=fill;fontSize=12;fontFamily=Helvetica;html=1;whiteSpace=wrap;" parent="WIyWlLk6GJQsqaUBKTNV-1" vertex="1">
          <mxGeometry x="3020" y="490" width="180" height="110" as="geometry" />
        </mxCell>
        <mxCell id="oJ_CcM2kpAITmd0sQEhz-52" value="" style="endArrow=block;html=1;rounded=0;endFill=0;entryX=0.002;entryY=0.31;entryDx=0;entryDy=0;entryPerimeter=0;" parent="WIyWlLk6GJQsqaUBKTNV-1" target="oJ_CcM2kpAITmd0sQEhz-3" edge="1">
          <mxGeometry width="50" height="50" relative="1" as="geometry">
            <mxPoint x="3100" y="490" as="sourcePoint" />
            <mxPoint x="3150" y="440" as="targetPoint" />
            <Array as="points">
              <mxPoint x="3100" y="360" />
            </Array>
          </mxGeometry>
        </mxCell>
        <mxCell id="oJ_CcM2kpAITmd0sQEhz-53" value="&lt;div&gt;&lt;font size=&quot;1&quot;&gt;вообще я тут подумал что можно дать возможность&lt;/font&gt;&lt;/div&gt;&lt;div&gt;&lt;font size=&quot;1&quot;&gt;подписываться&lt;/font&gt;&lt;/div&gt;&lt;div&gt;&lt;font size=&quot;1&quot;&gt;на события всем&lt;br&gt;&lt;/font&gt;&lt;/div&gt;&lt;div&gt;&lt;font size=&quot;1&quot;&gt;наследникам Traits&lt;br&gt; &lt;/font&gt;&lt;/div&gt;" style="shape=note;whiteSpace=wrap;html=1;backgroundOutline=1;darkOpacity=0.05;size=14;" parent="WIyWlLk6GJQsqaUBKTNV-1" vertex="1">
          <mxGeometry x="3820" y="660" width="100" height="120" as="geometry" />
        </mxCell>
        <mxCell id="oJ_CcM2kpAITmd0sQEhz-54" value="" style="endArrow=block;html=1;rounded=0;exitX=1;exitY=0.5;exitDx=0;exitDy=0;entryX=0.942;entryY=1.001;entryDx=0;entryDy=0;entryPerimeter=0;endFill=0;" parent="WIyWlLk6GJQsqaUBKTNV-1" source="oJ_CcM2kpAITmd0sQEhz-55" target="oJ_CcM2kpAITmd0sQEhz-51" edge="1">
          <mxGeometry width="50" height="50" relative="1" as="geometry">
            <mxPoint x="3140" y="669" as="sourcePoint" />
            <mxPoint x="3189" y="600" as="targetPoint" />
            <Array as="points">
              <mxPoint x="3190" y="670" />
            </Array>
          </mxGeometry>
        </mxCell>
        <mxCell id="oJ_CcM2kpAITmd0sQEhz-55" value="&lt;p style=&quot;margin:0px;margin-top:4px;text-align:center;&quot;&gt;&lt;b&gt;Box&lt;/b&gt;&lt;br&gt;&lt;/p&gt;&lt;hr size=&quot;1&quot;&gt;&lt;div style=&quot;height:2px;&quot;&gt;&lt;/div&gt;" style="verticalAlign=top;align=left;overflow=fill;fontSize=12;fontFamily=Helvetica;html=1;whiteSpace=wrap;" parent="WIyWlLk6GJQsqaUBKTNV-1" vertex="1">
          <mxGeometry x="3020" y="640" width="150" height="60" as="geometry" />
        </mxCell>
        <mxCell id="oJ_CcM2kpAITmd0sQEhz-56" value="&lt;p style=&quot;margin:0px;margin-top:4px;text-align:center;&quot;&gt;&lt;b&gt;Barrel&lt;/b&gt;&lt;br&gt;&lt;/p&gt;&lt;hr size=&quot;1&quot;&gt;&lt;div style=&quot;height:2px;&quot;&gt;&lt;/div&gt;" style="verticalAlign=top;align=left;overflow=fill;fontSize=12;fontFamily=Helvetica;html=1;whiteSpace=wrap;" parent="WIyWlLk6GJQsqaUBKTNV-1" vertex="1">
          <mxGeometry x="3020" y="720" width="150" height="60" as="geometry" />
        </mxCell>
        <mxCell id="oJ_CcM2kpAITmd0sQEhz-57" value="" style="endArrow=none;html=1;rounded=0;exitX=1;exitY=0.5;exitDx=0;exitDy=0;endFill=0;" parent="WIyWlLk6GJQsqaUBKTNV-1" edge="1">
          <mxGeometry width="50" height="50" relative="1" as="geometry">
            <mxPoint x="3170" y="740" as="sourcePoint" />
            <mxPoint x="3190" y="670" as="targetPoint" />
            <Array as="points">
              <mxPoint x="3190" y="740" />
            </Array>
          </mxGeometry>
        </mxCell>
        <mxCell id="oJ_CcM2kpAITmd0sQEhz-59" value="&lt;p style=&quot;margin:0px;margin-top:4px;text-align:center;&quot;&gt;&lt;b&gt;GasReservoir&lt;/b&gt;&lt;br&gt;&lt;/p&gt;&lt;hr size=&quot;1&quot;&gt;&lt;div style=&quot;height:2px;&quot;&gt;&lt;/div&gt;" style="verticalAlign=top;align=left;overflow=fill;fontSize=12;fontFamily=Helvetica;html=1;whiteSpace=wrap;" parent="WIyWlLk6GJQsqaUBKTNV-1" vertex="1">
          <mxGeometry x="3020" y="800" width="150" height="60" as="geometry" />
        </mxCell>
        <mxCell id="oJ_CcM2kpAITmd0sQEhz-60" value="" style="endArrow=none;html=1;rounded=0;exitX=1;exitY=0.5;exitDx=0;exitDy=0;endFill=0;" parent="WIyWlLk6GJQsqaUBKTNV-1" edge="1">
          <mxGeometry width="50" height="50" relative="1" as="geometry">
            <mxPoint x="3170" y="820" as="sourcePoint" />
            <mxPoint x="3190" y="740" as="targetPoint" />
            <Array as="points">
              <mxPoint x="3190" y="820" />
            </Array>
          </mxGeometry>
        </mxCell>
        <mxCell id="oJ_CcM2kpAITmd0sQEhz-61" value="" style="endArrow=block;dashed=1;html=1;rounded=0;endFill=0;" parent="WIyWlLk6GJQsqaUBKTNV-1" edge="1">
          <mxGeometry width="50" height="50" relative="1" as="geometry">
            <mxPoint x="3310" y="1200" as="sourcePoint" />
            <mxPoint x="3310" y="560" as="targetPoint" />
          </mxGeometry>
        </mxCell>
        <mxCell id="oJ_CcM2kpAITmd0sQEhz-62" value="" style="endArrow=block;html=1;rounded=0;endFill=0;" parent="WIyWlLk6GJQsqaUBKTNV-1" edge="1">
          <mxGeometry width="50" height="50" relative="1" as="geometry">
            <mxPoint x="3260" y="1200" as="sourcePoint" />
            <mxPoint x="3260" y="428" as="targetPoint" />
          </mxGeometry>
        </mxCell>
        <mxCell id="oJ_CcM2kpAITmd0sQEhz-63" value="&lt;p style=&quot;margin:0px;margin-top:4px;text-align:center;&quot;&gt;&lt;b&gt;&amp;lt;&amp;lt;abstract&amp;gt;&amp;gt;&lt;br&gt;Detail&lt;br&gt;&lt;/b&gt;&lt;/p&gt;&lt;hr size=&quot;1&quot;&gt;&lt;p style=&quot;margin:0px;margin-left:4px;&quot;&gt;- detailStatePoints: int&lt;/p&gt;&lt;p style=&quot;margin:0px;margin-left:4px;&quot;&gt;+ isDestroyed: int&lt;/p&gt;&lt;p style=&quot;margin:0px;margin-left:4px;&quot;&gt;+ ownerShip: Ship?&lt;br&gt;&lt;/p&gt;&lt;hr size=&quot;1&quot;&gt;&lt;p style=&quot;margin:0px;margin-left:4px;&quot;&gt;+ virtual OnDamage(int): void&lt;/p&gt;&lt;p style=&quot;margin:0px;margin-left:4px;&quot;&gt;+ virtual OnDestruction(): void&lt;/p&gt;" style="verticalAlign=top;align=left;overflow=fill;fontSize=12;fontFamily=Helvetica;html=1;whiteSpace=wrap;" parent="WIyWlLk6GJQsqaUBKTNV-1" vertex="1">
          <mxGeometry x="3180" y="1200" width="210" height="140" as="geometry" />
        </mxCell>
        <mxCell id="oJ_CcM2kpAITmd0sQEhz-68" value="&lt;p style=&quot;margin:0px;margin-top:4px;text-align:center;&quot;&gt;&lt;b&gt;&amp;lt;&amp;lt;abstract&amp;gt;&amp;gt;&lt;/b&gt;&lt;/p&gt;&lt;p style=&quot;margin:0px;margin-top:4px;text-align:center;&quot;&gt;&lt;b&gt;Engine&lt;br&gt;&lt;/b&gt;&lt;/p&gt;&lt;hr size=&quot;1&quot;&gt;&lt;p style=&quot;margin:0px;margin-left:4px;&quot;&gt;# enginePower: int&lt;/p&gt;&lt;p style=&quot;margin:0px;margin-left:4px;&quot;&gt;# tank: FuelTank&lt;br&gt;&lt;/p&gt;&lt;hr size=&quot;1&quot;&gt;&lt;p style=&quot;margin:0px;margin-left:4px;&quot;&gt;+ virtual move(int, int): void&lt;/p&gt;&lt;p style=&quot;margin:0px;margin-left:4px;&quot;&gt;+ virtual warp(): void&lt;/p&gt;" style="verticalAlign=top;align=left;overflow=fill;fontSize=12;fontFamily=Helvetica;html=1;whiteSpace=wrap;" parent="WIyWlLk6GJQsqaUBKTNV-1" vertex="1">
          <mxGeometry x="3180" y="1380" width="160" height="130" as="geometry" />
        </mxCell>
        <mxCell id="oJ_CcM2kpAITmd0sQEhz-69" value="" style="endArrow=block;html=1;rounded=0;entryX=0.952;entryY=1;entryDx=0;entryDy=0;entryPerimeter=0;endFill=0;" parent="WIyWlLk6GJQsqaUBKTNV-1" target="oJ_CcM2kpAITmd0sQEhz-63" edge="1">
          <mxGeometry width="50" height="50" relative="1" as="geometry">
            <mxPoint x="3340" y="1440" as="sourcePoint" />
            <mxPoint x="3390" y="1390" as="targetPoint" />
            <Array as="points">
              <mxPoint x="3380" y="1440" />
            </Array>
          </mxGeometry>
        </mxCell>
        <mxCell id="oJ_CcM2kpAITmd0sQEhz-71" value="&lt;p style=&quot;margin:0px;margin-top:4px;text-align:center;&quot;&gt;&lt;b&gt;&amp;lt;&amp;lt;abstract&amp;gt;&amp;gt;&lt;/b&gt;&lt;/p&gt;&lt;p style=&quot;margin:0px;margin-top:4px;text-align:center;&quot;&gt;&lt;b&gt;Weapon&lt;br&gt;&lt;/b&gt;&lt;/p&gt;&lt;hr size=&quot;1&quot;&gt;&lt;p style=&quot;margin:0px;margin-left:4px;&quot;&gt;# weaponPower: int&lt;/p&gt;&lt;hr size=&quot;1&quot;&gt;&lt;p style=&quot;margin:0px;margin-left:4px;&quot;&gt;+ virtual shoot(Ship): void&lt;/p&gt;" style="verticalAlign=top;align=left;overflow=fill;fontSize=12;fontFamily=Helvetica;html=1;whiteSpace=wrap;" parent="WIyWlLk6GJQsqaUBKTNV-1" vertex="1">
          <mxGeometry x="3180" y="1520" width="160" height="100" as="geometry" />
        </mxCell>
        <mxCell id="oJ_CcM2kpAITmd0sQEhz-72" value="" style="endArrow=none;html=1;rounded=0;entryX=0.952;entryY=1;entryDx=0;entryDy=0;entryPerimeter=0;endFill=0;" parent="WIyWlLk6GJQsqaUBKTNV-1" edge="1">
          <mxGeometry width="50" height="50" relative="1" as="geometry">
            <mxPoint x="3340" y="1540" as="sourcePoint" />
            <mxPoint x="3380" y="1440" as="targetPoint" />
            <Array as="points">
              <mxPoint x="3380" y="1540" />
            </Array>
          </mxGeometry>
        </mxCell>
        <mxCell id="oJ_CcM2kpAITmd0sQEhz-73" value="&lt;p style=&quot;margin:0px;margin-top:4px;text-align:center;&quot;&gt;&lt;b&gt;&amp;lt;&amp;lt;abstract&amp;gt;&amp;gt;&lt;/b&gt;&lt;/p&gt;&lt;p style=&quot;margin:0px;margin-top:4px;text-align:center;&quot;&gt;&lt;b&gt;Radar&lt;br&gt;&lt;/b&gt;&lt;/p&gt;&lt;hr size=&quot;1&quot;&gt;&lt;p style=&quot;margin:0px;margin-left:4px;&quot;&gt;# scanRadius: int&lt;/p&gt;&lt;hr size=&quot;1&quot;&gt;&lt;p style=&quot;margin:0px;margin-left:4px;&quot;&gt;+ virtual scan(): List&amp;lt;Ship&amp;gt;&lt;/p&gt;" style="verticalAlign=top;align=left;overflow=fill;fontSize=12;fontFamily=Helvetica;html=1;whiteSpace=wrap;" parent="WIyWlLk6GJQsqaUBKTNV-1" vertex="1">
          <mxGeometry x="3180" y="1630" width="160" height="100" as="geometry" />
        </mxCell>
        <mxCell id="oJ_CcM2kpAITmd0sQEhz-74" value="" style="endArrow=none;html=1;rounded=0;endFill=0;" parent="WIyWlLk6GJQsqaUBKTNV-1" edge="1">
          <mxGeometry width="50" height="50" relative="1" as="geometry">
            <mxPoint x="3340" y="1650" as="sourcePoint" />
            <mxPoint x="3380" y="1530" as="targetPoint" />
            <Array as="points">
              <mxPoint x="3380" y="1650" />
            </Array>
          </mxGeometry>
        </mxCell>
        <mxCell id="oJ_CcM2kpAITmd0sQEhz-75" value="&lt;p style=&quot;margin:0px;margin-top:4px;text-align:center;&quot;&gt;&lt;b&gt;Storage&lt;br&gt;&lt;/b&gt;&lt;/p&gt;&lt;hr size=&quot;1&quot;&gt;&lt;p style=&quot;margin:0px;margin-left:4px;&quot;&gt;- maxWeight: int&lt;/p&gt;&lt;p style=&quot;margin:0px;margin-left:4px;&quot;&gt;- currentWeight: int&lt;/p&gt;&lt;p style=&quot;margin:0px;margin-left:4px;&quot;&gt;- maxCapacity: int&lt;/p&gt;&lt;p style=&quot;margin:0px;margin-left:4px;&quot;&gt;- currentCapacity: int&lt;/p&gt;&lt;p style=&quot;margin:0px;margin-left:4px;&quot;&gt;+ items: List&amp;lt;IItem&amp;gt;&lt;/p&gt;&lt;p style=&quot;margin:0px;margin-left:4px;&quot;&gt;- typesOfItems: List&amp;lt;Type&amp;gt;&lt;br&gt;&lt;/p&gt;&lt;hr size=&quot;1&quot;&gt;&lt;p style=&quot;margin:0px;margin-left:4px;&quot;&gt;+ store/get(): void&lt;/p&gt;" style="verticalAlign=top;align=left;overflow=fill;fontSize=12;fontFamily=Helvetica;html=1;whiteSpace=wrap;" parent="WIyWlLk6GJQsqaUBKTNV-1" vertex="1">
          <mxGeometry x="3180" y="1740" width="160" height="150" as="geometry" />
        </mxCell>
        <mxCell id="oJ_CcM2kpAITmd0sQEhz-76" value="" style="endArrow=none;html=1;rounded=0;endFill=0;" parent="WIyWlLk6GJQsqaUBKTNV-1" edge="1">
          <mxGeometry width="50" height="50" relative="1" as="geometry">
            <mxPoint x="3340" y="1760" as="sourcePoint" />
            <mxPoint x="3380" y="1640" as="targetPoint" />
            <Array as="points">
              <mxPoint x="3380" y="1760" />
            </Array>
          </mxGeometry>
        </mxCell>
        <mxCell id="oJ_CcM2kpAITmd0sQEhz-77" value="&lt;p style=&quot;margin:0px;margin-top:4px;text-align:center;&quot;&gt;&lt;b&gt;&amp;lt;&amp;lt;abstract&amp;gt;&amp;gt;&lt;/b&gt;&lt;/p&gt;&lt;p style=&quot;margin:0px;margin-top:4px;text-align:center;&quot;&gt;&lt;b&gt;Equipent&lt;br&gt;&lt;/b&gt;&lt;/p&gt;&lt;hr size=&quot;1&quot;&gt;&lt;p style=&quot;margin:0px;margin-left:4px;&quot;&gt;# workRadius: int&lt;/p&gt;&lt;hr size=&quot;1&quot;&gt;&lt;p style=&quot;margin:0px;margin-left:4px;&quot;&gt;+ virtual work(): void&lt;/p&gt;" style="verticalAlign=top;align=left;overflow=fill;fontSize=12;fontFamily=Helvetica;html=1;whiteSpace=wrap;" parent="WIyWlLk6GJQsqaUBKTNV-1" vertex="1">
          <mxGeometry x="3180" y="1890" width="160" height="100" as="geometry" />
        </mxCell>
        <mxCell id="oJ_CcM2kpAITmd0sQEhz-78" value="" style="endArrow=none;html=1;rounded=0;endFill=0;" parent="WIyWlLk6GJQsqaUBKTNV-1" edge="1">
          <mxGeometry width="50" height="50" relative="1" as="geometry">
            <mxPoint x="3340" y="1900" as="sourcePoint" />
            <mxPoint x="3380" y="1760" as="targetPoint" />
            <Array as="points">
              <mxPoint x="3380" y="1900" />
            </Array>
          </mxGeometry>
        </mxCell>
        <mxCell id="oJ_CcM2kpAITmd0sQEhz-79" value="&lt;p style=&quot;margin:0px;margin-top:4px;text-align:center;&quot;&gt;&lt;b&gt;&amp;lt;&amp;lt;abstract&amp;gt;&amp;gt;&lt;/b&gt;&lt;/p&gt;&lt;p style=&quot;margin:0px;margin-top:4px;text-align:center;&quot;&gt;&lt;b&gt;Armor&lt;br&gt;&lt;/b&gt;&lt;/p&gt;&lt;hr size=&quot;1&quot;&gt;&lt;p style=&quot;margin:0px;margin-left:4px;&quot;&gt;# maxDamage: int&lt;/p&gt;&lt;p style=&quot;margin:0px;margin-left:4px;&quot;&gt;# currentDamage: int&lt;/p&gt;&lt;hr size=&quot;1&quot;&gt;&lt;p style=&quot;margin:0px;margin-left:4px;&quot;&gt;+ onDamage(): void&lt;/p&gt;&lt;p style=&quot;margin:0px;margin-left:4px;&quot;&gt;+ onDestruction(): void&lt;/p&gt;" style="verticalAlign=top;align=left;overflow=fill;fontSize=12;fontFamily=Helvetica;html=1;whiteSpace=wrap;" parent="WIyWlLk6GJQsqaUBKTNV-1" vertex="1">
          <mxGeometry x="3180" y="2000" width="160" height="130" as="geometry" />
        </mxCell>
        <mxCell id="oJ_CcM2kpAITmd0sQEhz-81" value="" style="endArrow=none;html=1;rounded=0;endFill=0;" parent="WIyWlLk6GJQsqaUBKTNV-1" edge="1">
          <mxGeometry width="50" height="50" relative="1" as="geometry">
            <mxPoint x="3340" y="2010" as="sourcePoint" />
            <mxPoint x="3380" y="1870" as="targetPoint" />
            <Array as="points">
              <mxPoint x="3380" y="2010" />
            </Array>
          </mxGeometry>
        </mxCell>
        <mxCell id="oJ_CcM2kpAITmd0sQEhz-82" value="&lt;p style=&quot;margin:0px;margin-top:4px;text-align:center;&quot;&gt;&lt;b&gt;FuelTank&lt;br&gt;&lt;/b&gt;&lt;/p&gt;&lt;hr size=&quot;1&quot;&gt;&lt;p style=&quot;margin:0px;margin-left:4px;&quot;&gt;- maxCapacity: int&lt;/p&gt;&lt;p style=&quot;margin:0px;margin-left:4px;&quot;&gt;- currentCapacity: int&lt;/p&gt;&lt;hr size=&quot;1&quot;&gt;&lt;p style=&quot;margin:0px;margin-left:4px;&quot;&gt;+ fill(): void&lt;/p&gt;" style="verticalAlign=top;align=left;overflow=fill;fontSize=12;fontFamily=Helvetica;html=1;whiteSpace=wrap;" parent="WIyWlLk6GJQsqaUBKTNV-1" vertex="1">
          <mxGeometry x="3180" y="2140" width="160" height="90" as="geometry" />
        </mxCell>
        <mxCell id="oJ_CcM2kpAITmd0sQEhz-83" value="" style="endArrow=none;html=1;rounded=0;endFill=0;" parent="WIyWlLk6GJQsqaUBKTNV-1" edge="1">
          <mxGeometry width="50" height="50" relative="1" as="geometry">
            <mxPoint x="3340" y="2160" as="sourcePoint" />
            <mxPoint x="3380" y="2010" as="targetPoint" />
            <Array as="points">
              <mxPoint x="3380" y="2160" />
            </Array>
          </mxGeometry>
        </mxCell>
        <mxCell id="oJ_CcM2kpAITmd0sQEhz-84" value="" style="endArrow=none;html=1;rounded=0;entryX=0.006;entryY=0.336;entryDx=0;entryDy=0;entryPerimeter=0;" parent="WIyWlLk6GJQsqaUBKTNV-1" target="oJ_CcM2kpAITmd0sQEhz-82" edge="1">
          <mxGeometry width="50" height="50" relative="1" as="geometry">
            <mxPoint x="3070" y="1770" as="sourcePoint" />
            <mxPoint x="3190" y="2180" as="targetPoint" />
            <Array as="points">
              <mxPoint x="3070" y="2170" />
            </Array>
          </mxGeometry>
        </mxCell>
        <mxCell id="oJ_CcM2kpAITmd0sQEhz-85" value="" style="endArrow=none;html=1;rounded=0;" parent="WIyWlLk6GJQsqaUBKTNV-1" edge="1">
          <mxGeometry width="50" height="50" relative="1" as="geometry">
            <mxPoint x="3070" y="2040" as="sourcePoint" />
            <mxPoint x="3180" y="2040" as="targetPoint" />
          </mxGeometry>
        </mxCell>
        <mxCell id="oJ_CcM2kpAITmd0sQEhz-86" value="" style="endArrow=none;html=1;rounded=0;" parent="WIyWlLk6GJQsqaUBKTNV-1" edge="1">
          <mxGeometry width="50" height="50" relative="1" as="geometry">
            <mxPoint x="3070" y="1930" as="sourcePoint" />
            <mxPoint x="3180" y="1930" as="targetPoint" />
          </mxGeometry>
        </mxCell>
        <mxCell id="oJ_CcM2kpAITmd0sQEhz-87" value="" style="endArrow=none;html=1;rounded=0;" parent="WIyWlLk6GJQsqaUBKTNV-1" edge="1">
          <mxGeometry width="50" height="50" relative="1" as="geometry">
            <mxPoint x="3070" y="1810" as="sourcePoint" />
            <mxPoint x="3180" y="1810" as="targetPoint" />
          </mxGeometry>
        </mxCell>
        <mxCell id="oJ_CcM2kpAITmd0sQEhz-88" value="" style="endArrow=none;html=1;rounded=0;entryX=-0.016;entryY=0.54;entryDx=0;entryDy=0;entryPerimeter=0;" parent="WIyWlLk6GJQsqaUBKTNV-1" target="oJ_CcM2kpAITmd0sQEhz-68" edge="1">
          <mxGeometry width="50" height="50" relative="1" as="geometry">
            <mxPoint x="3070" y="1770" as="sourcePoint" />
            <mxPoint x="3180" y="1444.0900000000001" as="targetPoint" />
            <Array as="points">
              <mxPoint x="3070" y="1450" />
            </Array>
          </mxGeometry>
        </mxCell>
        <mxCell id="oJ_CcM2kpAITmd0sQEhz-89" value="" style="endArrow=none;html=1;rounded=0;" parent="WIyWlLk6GJQsqaUBKTNV-1" edge="1">
          <mxGeometry width="50" height="50" relative="1" as="geometry">
            <mxPoint x="3070" y="1690" as="sourcePoint" />
            <mxPoint x="3180" y="1690" as="targetPoint" />
          </mxGeometry>
        </mxCell>
        <mxCell id="oJ_CcM2kpAITmd0sQEhz-90" value="" style="endArrow=none;html=1;rounded=0;" parent="WIyWlLk6GJQsqaUBKTNV-1" edge="1">
          <mxGeometry width="50" height="50" relative="1" as="geometry">
            <mxPoint x="3070" y="1580" as="sourcePoint" />
            <mxPoint x="3180" y="1580" as="targetPoint" />
          </mxGeometry>
        </mxCell>
        <mxCell id="oJ_CcM2kpAITmd0sQEhz-91" value="" style="endArrow=none;html=1;rounded=0;startArrow=diamondThin;startFill=1;" parent="WIyWlLk6GJQsqaUBKTNV-1" edge="1">
          <mxGeometry width="50" height="50" relative="1" as="geometry">
            <mxPoint x="2960" y="1810" as="sourcePoint" />
            <mxPoint x="3070" y="1810" as="targetPoint" />
          </mxGeometry>
        </mxCell>
        <mxCell id="oJ_CcM2kpAITmd0sQEhz-92" value="&lt;p style=&quot;margin:0px;margin-top:4px;text-align:center;&quot;&gt;&lt;b&gt;Ship&lt;/b&gt;&lt;br&gt;&lt;/p&gt;&lt;hr size=&quot;1&quot;&gt;&lt;p style=&quot;margin:0px;margin-left:4px;&quot;&gt;+ shipEngine: Engine  &lt;/p&gt;&lt;p style=&quot;margin:0px;margin-left:4px;&quot;&gt;+ shipFuelTank: FuelTank&lt;br&gt;+ shipStorage: Storage&lt;br&gt;+ shipEquipment: Equipment&lt;br&gt;+ shipRadar: Radar&lt;br&gt;+ shipWeapon: Weapon &lt;br&gt;+ ShipArmor: Armor&lt;/p&gt;&lt;p style=&quot;margin:0px;margin-left:4px;&quot;&gt;&lt;br&gt;&lt;/p&gt;&lt;p style=&quot;margin:0px;margin-left:4px;&quot;&gt;+ position: Level&lt;/p&gt;&lt;p style=&quot;margin:0px;margin-left:4px;&quot;&gt;+ coordinates: Coordintes&lt;br&gt;&lt;/p&gt;&lt;p style=&quot;margin:0px;margin-left:4px;&quot;&gt;- state: ShipState&lt;/p&gt;&lt;p style=&quot;margin:0px;margin-left:4px;&quot;&gt;&lt;br&gt;&lt;/p&gt;&lt;hr size=&quot;1&quot;&gt;&lt;p style=&quot;margin:0px;margin-left:4px;&quot;&gt;+ swapParts(Detail, Detail): void&lt;br&gt;&lt;/p&gt;" style="verticalAlign=top;align=left;overflow=fill;fontSize=12;fontFamily=Helvetica;html=1;whiteSpace=wrap;" parent="WIyWlLk6GJQsqaUBKTNV-1" vertex="1">
          <mxGeometry x="2710" y="1770" width="240" height="240" as="geometry" />
        </mxCell>
        <mxCell id="oJ_CcM2kpAITmd0sQEhz-93" value="&lt;div&gt;Управление кораблем&lt;/div&gt;&lt;div&gt;происходит посредством&lt;/div&gt;&lt;div&gt;команд, отправленных&lt;/div&gt;&lt;div&gt;отдельным его частям &lt;br&gt;&lt;/div&gt;" style="shape=note;whiteSpace=wrap;html=1;backgroundOutline=1;darkOpacity=0.05;size=17;" parent="WIyWlLk6GJQsqaUBKTNV-1" vertex="1">
          <mxGeometry x="2565" y="2070" width="160" height="90" as="geometry" />
        </mxCell>
        <mxCell id="oJ_CcM2kpAITmd0sQEhz-98" value="" style="edgeStyle=orthogonalEdgeStyle;rounded=0;orthogonalLoop=1;jettySize=auto;html=1;endArrow=none;endFill=0;dashed=1;" parent="WIyWlLk6GJQsqaUBKTNV-1" source="oJ_CcM2kpAITmd0sQEhz-94" target="oJ_CcM2kpAITmd0sQEhz-75" edge="1">
          <mxGeometry relative="1" as="geometry">
            <Array as="points">
              <mxPoint x="3360" y="1840" />
              <mxPoint x="3360" y="1840" />
            </Array>
          </mxGeometry>
        </mxCell>
        <mxCell id="oJ_CcM2kpAITmd0sQEhz-94" value="&lt;div&gt;нужен даункаст&lt;/div&gt;&lt;div&gt;&lt;br&gt;&lt;/div&gt;&lt;div&gt;Как вариант - можно сделать еще один лист производных типов хранящихся объектов&lt;br&gt;&lt;/div&gt;" style="shape=note;whiteSpace=wrap;html=1;backgroundOutline=1;darkOpacity=0.05;size=10;" parent="WIyWlLk6GJQsqaUBKTNV-1" vertex="1">
          <mxGeometry x="3462.5" y="1790" width="215" height="100" as="geometry" />
        </mxCell>
        <mxCell id="oJ_CcM2kpAITmd0sQEhz-99" value="&lt;div&gt;а еще что можно onTick сделать также onEvent&lt;/div&gt;" style="shape=note;whiteSpace=wrap;html=1;backgroundOutline=1;darkOpacity=0.05;size=18;" parent="WIyWlLk6GJQsqaUBKTNV-1" vertex="1">
          <mxGeometry x="3940" y="680" width="80" height="100" as="geometry" />
        </mxCell>
        <mxCell id="oJ_CcM2kpAITmd0sQEhz-100" value="&lt;div&gt;Все изначальные детали указываются в конструкторе&lt;/div&gt;" style="shape=note;whiteSpace=wrap;html=1;backgroundOutline=1;darkOpacity=0.05;size=19;" parent="WIyWlLk6GJQsqaUBKTNV-1" vertex="1">
          <mxGeometry x="2770" y="2060" width="155" height="80" as="geometry" />
        </mxCell>
        <mxCell id="oJ_CcM2kpAITmd0sQEhz-124" value="" style="endArrow=none;dashed=1;html=1;rounded=0;dashPattern=1 1;startArrow=block;startFill=0;" parent="WIyWlLk6GJQsqaUBKTNV-1" edge="1">
          <mxGeometry width="50" height="50" relative="1" as="geometry">
            <mxPoint x="3340" y="2065" as="sourcePoint" />
            <mxPoint x="3470" y="2065" as="targetPoint" />
          </mxGeometry>
        </mxCell>
        <mxCell id="oJ_CcM2kpAITmd0sQEhz-125" value="" style="endArrow=none;dashed=1;html=1;rounded=0;dashPattern=1 1;" parent="WIyWlLk6GJQsqaUBKTNV-1" edge="1">
          <mxGeometry width="50" height="50" relative="1" as="geometry">
            <mxPoint x="3420" y="2065" as="sourcePoint" />
            <mxPoint x="3470" y="2015" as="targetPoint" />
            <Array as="points">
              <mxPoint x="3420" y="2015" />
            </Array>
          </mxGeometry>
        </mxCell>
        <mxCell id="oJ_CcM2kpAITmd0sQEhz-126" value="" style="endArrow=none;dashed=1;html=1;rounded=0;dashPattern=1 1;" parent="WIyWlLk6GJQsqaUBKTNV-1" edge="1">
          <mxGeometry width="50" height="50" relative="1" as="geometry">
            <mxPoint x="3420" y="2065" as="sourcePoint" />
            <mxPoint x="3470" y="2115" as="targetPoint" />
            <Array as="points">
              <mxPoint x="3420" y="2115" />
              <mxPoint x="3450" y="2115" />
            </Array>
          </mxGeometry>
        </mxCell>
        <mxCell id="oJ_CcM2kpAITmd0sQEhz-127" value="" style="endArrow=none;dashed=1;html=1;rounded=0;dashPattern=1 1;startArrow=block;startFill=0;" parent="WIyWlLk6GJQsqaUBKTNV-1" edge="1">
          <mxGeometry width="50" height="50" relative="1" as="geometry">
            <mxPoint x="3340" y="1950" as="sourcePoint" />
            <mxPoint x="3470" y="1950" as="targetPoint" />
          </mxGeometry>
        </mxCell>
        <mxCell id="oJ_CcM2kpAITmd0sQEhz-128" value="" style="endArrow=none;dashed=1;html=1;rounded=0;dashPattern=1 1;" parent="WIyWlLk6GJQsqaUBKTNV-1" edge="1">
          <mxGeometry width="50" height="50" relative="1" as="geometry">
            <mxPoint x="3420" y="1950" as="sourcePoint" />
            <mxPoint x="3470" y="1900" as="targetPoint" />
            <Array as="points">
              <mxPoint x="3420" y="1900" />
            </Array>
          </mxGeometry>
        </mxCell>
        <mxCell id="oJ_CcM2kpAITmd0sQEhz-129" value="" style="endArrow=none;dashed=1;html=1;rounded=0;dashPattern=1 1;" parent="WIyWlLk6GJQsqaUBKTNV-1" edge="1">
          <mxGeometry width="50" height="50" relative="1" as="geometry">
            <mxPoint x="3420" y="1950" as="sourcePoint" />
            <mxPoint x="3470" y="2000" as="targetPoint" />
            <Array as="points">
              <mxPoint x="3420" y="2000" />
              <mxPoint x="3450" y="2000" />
            </Array>
          </mxGeometry>
        </mxCell>
        <mxCell id="oJ_CcM2kpAITmd0sQEhz-130" value="" style="endArrow=none;dashed=1;html=1;rounded=0;dashPattern=1 1;startArrow=block;startFill=0;" parent="WIyWlLk6GJQsqaUBKTNV-1" edge="1">
          <mxGeometry width="50" height="50" relative="1" as="geometry">
            <mxPoint x="3340" y="1680" as="sourcePoint" />
            <mxPoint x="3470" y="1680" as="targetPoint" />
          </mxGeometry>
        </mxCell>
        <mxCell id="oJ_CcM2kpAITmd0sQEhz-131" value="" style="endArrow=none;dashed=1;html=1;rounded=0;dashPattern=1 1;" parent="WIyWlLk6GJQsqaUBKTNV-1" edge="1">
          <mxGeometry width="50" height="50" relative="1" as="geometry">
            <mxPoint x="3420" y="1680" as="sourcePoint" />
            <mxPoint x="3470" y="1630" as="targetPoint" />
            <Array as="points">
              <mxPoint x="3420" y="1630" />
            </Array>
          </mxGeometry>
        </mxCell>
        <mxCell id="oJ_CcM2kpAITmd0sQEhz-132" value="" style="endArrow=none;dashed=1;html=1;rounded=0;dashPattern=1 1;" parent="WIyWlLk6GJQsqaUBKTNV-1" edge="1">
          <mxGeometry width="50" height="50" relative="1" as="geometry">
            <mxPoint x="3420" y="1680" as="sourcePoint" />
            <mxPoint x="3470" y="1730" as="targetPoint" />
            <Array as="points">
              <mxPoint x="3420" y="1730" />
              <mxPoint x="3450" y="1730" />
            </Array>
          </mxGeometry>
        </mxCell>
        <mxCell id="oJ_CcM2kpAITmd0sQEhz-133" value="" style="endArrow=none;dashed=1;html=1;rounded=0;dashPattern=1 1;startArrow=block;startFill=0;" parent="WIyWlLk6GJQsqaUBKTNV-1" edge="1">
          <mxGeometry width="50" height="50" relative="1" as="geometry">
            <mxPoint x="3340" y="1560" as="sourcePoint" />
            <mxPoint x="3470" y="1560" as="targetPoint" />
          </mxGeometry>
        </mxCell>
        <mxCell id="oJ_CcM2kpAITmd0sQEhz-134" value="" style="endArrow=none;dashed=1;html=1;rounded=0;dashPattern=1 1;" parent="WIyWlLk6GJQsqaUBKTNV-1" edge="1">
          <mxGeometry width="50" height="50" relative="1" as="geometry">
            <mxPoint x="3420" y="1560" as="sourcePoint" />
            <mxPoint x="3470" y="1510" as="targetPoint" />
            <Array as="points">
              <mxPoint x="3420" y="1510" />
            </Array>
          </mxGeometry>
        </mxCell>
        <mxCell id="oJ_CcM2kpAITmd0sQEhz-135" value="" style="endArrow=none;dashed=1;html=1;rounded=0;dashPattern=1 1;" parent="WIyWlLk6GJQsqaUBKTNV-1" edge="1">
          <mxGeometry width="50" height="50" relative="1" as="geometry">
            <mxPoint x="3420" y="1560" as="sourcePoint" />
            <mxPoint x="3470" y="1610" as="targetPoint" />
            <Array as="points">
              <mxPoint x="3420" y="1610" />
              <mxPoint x="3450" y="1610" />
            </Array>
          </mxGeometry>
        </mxCell>
        <mxCell id="oJ_CcM2kpAITmd0sQEhz-136" value="" style="endArrow=none;dashed=1;html=1;rounded=0;dashPattern=1 1;startArrow=block;startFill=0;" parent="WIyWlLk6GJQsqaUBKTNV-1" edge="1">
          <mxGeometry width="50" height="50" relative="1" as="geometry">
            <mxPoint x="3332.5" y="1430" as="sourcePoint" />
            <mxPoint x="3462.5" y="1430" as="targetPoint" />
          </mxGeometry>
        </mxCell>
        <mxCell id="oJ_CcM2kpAITmd0sQEhz-137" value="" style="endArrow=none;dashed=1;html=1;rounded=0;dashPattern=1 1;" parent="WIyWlLk6GJQsqaUBKTNV-1" edge="1">
          <mxGeometry width="50" height="50" relative="1" as="geometry">
            <mxPoint x="3412.5" y="1430" as="sourcePoint" />
            <mxPoint x="3462.5" y="1380" as="targetPoint" />
            <Array as="points">
              <mxPoint x="3412.5" y="1380" />
            </Array>
          </mxGeometry>
        </mxCell>
        <mxCell id="oJ_CcM2kpAITmd0sQEhz-138" value="" style="endArrow=none;dashed=1;html=1;rounded=0;dashPattern=1 1;" parent="WIyWlLk6GJQsqaUBKTNV-1" edge="1">
          <mxGeometry width="50" height="50" relative="1" as="geometry">
            <mxPoint x="3412.5" y="1430" as="sourcePoint" />
            <mxPoint x="3462.5" y="1480" as="targetPoint" />
            <Array as="points">
              <mxPoint x="3412.5" y="1480" />
              <mxPoint x="3442.5" y="1480" />
            </Array>
          </mxGeometry>
        </mxCell>
        <mxCell id="oJ_CcM2kpAITmd0sQEhz-139" value="" style="endArrow=none;html=1;rounded=0;" parent="WIyWlLk6GJQsqaUBKTNV-1" edge="1">
          <mxGeometry width="50" height="50" relative="1" as="geometry">
            <mxPoint x="2610" y="1770" as="sourcePoint" />
            <mxPoint x="2710" y="1850" as="targetPoint" />
            <Array as="points">
              <mxPoint x="2610" y="1850" />
            </Array>
          </mxGeometry>
        </mxCell>
        <mxCell id="oJ_CcM2kpAITmd0sQEhz-140" value="" style="endArrow=none;html=1;rounded=0;" parent="WIyWlLk6GJQsqaUBKTNV-1" edge="1">
          <mxGeometry width="50" height="50" relative="1" as="geometry">
            <mxPoint x="2610" y="1930" as="sourcePoint" />
            <mxPoint x="2610" y="1850" as="targetPoint" />
          </mxGeometry>
        </mxCell>
        <mxCell id="oJ_CcM2kpAITmd0sQEhz-141" value="" style="endArrow=none;html=1;rounded=0;startArrow=open;startFill=0;" parent="WIyWlLk6GJQsqaUBKTNV-1" edge="1">
          <mxGeometry width="50" height="50" relative="1" as="geometry">
            <mxPoint x="2510" y="1930" as="sourcePoint" />
            <mxPoint x="2610" y="1930" as="targetPoint" />
          </mxGeometry>
        </mxCell>
        <mxCell id="oJ_CcM2kpAITmd0sQEhz-143" value="" style="endArrow=none;html=1;rounded=0;startArrow=open;startFill=0;" parent="WIyWlLk6GJQsqaUBKTNV-1" edge="1">
          <mxGeometry width="50" height="50" relative="1" as="geometry">
            <mxPoint x="2510" y="1770" as="sourcePoint" />
            <mxPoint x="2610" y="1770" as="targetPoint" />
          </mxGeometry>
        </mxCell>
        <mxCell id="oJ_CcM2kpAITmd0sQEhz-149" value="&lt;p style=&quot;margin:0px;margin-top:4px;text-align:center;&quot;&gt;&lt;b&gt;&amp;lt;&amp;lt;static&amp;gt;&amp;gt;&lt;/b&gt;&lt;/p&gt;&lt;p style=&quot;margin:0px;margin-top:4px;text-align:center;&quot;&gt;&lt;b&gt;Player&lt;br&gt;&lt;/b&gt;&lt;/p&gt;&lt;hr size=&quot;1&quot;&gt;&lt;div&gt;&amp;nbsp;+ playerShip: Ship&lt;/div&gt;&lt;div&gt;&amp;nbsp;+ playerScore: int&lt;br&gt;&lt;/div&gt;&lt;hr size=&quot;1&quot;&gt;" style="verticalAlign=top;align=left;overflow=fill;fontSize=12;fontFamily=Helvetica;html=1;whiteSpace=wrap;" parent="WIyWlLk6GJQsqaUBKTNV-1" vertex="1">
          <mxGeometry x="2350" y="1710" width="160" height="90" as="geometry" />
        </mxCell>
        <mxCell id="oJ_CcM2kpAITmd0sQEhz-151" value="&lt;p style=&quot;margin:0px;margin-top:4px;text-align:center;&quot;&gt;&lt;b&gt;NPC&lt;/b&gt;&lt;br&gt;&lt;/p&gt;&lt;hr size=&quot;1&quot;&gt;&lt;p style=&quot;margin:0px;margin-left:4px;&quot;&gt;+ playerShip: Ship&lt;/p&gt;&lt;p style=&quot;margin:0px;margin-left:4px;&quot;&gt;+ faction: Faction&lt;br&gt;&lt;/p&gt;&lt;hr size=&quot;1&quot;&gt;&lt;p style=&quot;margin:0px;margin-left:4px;&quot;&gt;&lt;br&gt;&lt;/p&gt;" style="verticalAlign=top;align=left;overflow=fill;fontSize=12;fontFamily=Helvetica;html=1;whiteSpace=wrap;" parent="WIyWlLk6GJQsqaUBKTNV-1" vertex="1">
          <mxGeometry x="2350" y="1890" width="160" height="80" as="geometry" />
        </mxCell>
        <mxCell id="oJ_CcM2kpAITmd0sQEhz-155" value="" style="edgeStyle=orthogonalEdgeStyle;rounded=0;orthogonalLoop=1;jettySize=auto;html=1;endArrow=none;endFill=0;startArrow=diamondThin;startFill=1;" parent="WIyWlLk6GJQsqaUBKTNV-1" source="oJ_CcM2kpAITmd0sQEhz-152" target="oJ_CcM2kpAITmd0sQEhz-154" edge="1">
          <mxGeometry relative="1" as="geometry" />
        </mxCell>
        <mxCell id="oJ_CcM2kpAITmd0sQEhz-152" value="&lt;p style=&quot;margin:0px;margin-top:4px;text-align:center;&quot;&gt;&lt;b&gt;&amp;lt;&amp;lt;static&amp;gt;&amp;gt;&lt;/b&gt;&lt;/p&gt;&lt;p style=&quot;margin:0px;margin-top:4px;text-align:center;&quot;&gt;&lt;b&gt;Galaxy&lt;/b&gt;&lt;/p&gt;&lt;hr size=&quot;1&quot;&gt;&lt;p style=&quot;margin:0px;margin-left:4px;&quot;&gt;+ PlanetSystems: List&amp;lt;PlanetSystem&amp;gt;&lt;br&gt;&lt;/p&gt;&lt;hr size=&quot;1&quot;&gt;&lt;p style=&quot;margin:0px;margin-left:4px;&quot;&gt;+ generateGalaxy(): void&lt;br&gt;&lt;/p&gt;" style="verticalAlign=top;align=left;overflow=fill;fontSize=12;fontFamily=Helvetica;html=1;whiteSpace=wrap;" parent="WIyWlLk6GJQsqaUBKTNV-1" vertex="1">
          <mxGeometry x="1120" y="2400" width="220" height="110" as="geometry" />
        </mxCell>
        <mxCell id="ZU-UUuN-moZJkXAPXbZI-21" style="edgeStyle=orthogonalEdgeStyle;rounded=0;orthogonalLoop=1;jettySize=auto;html=1;entryX=0.002;entryY=0.598;entryDx=0;entryDy=0;entryPerimeter=0;endArrow=block;endFill=0;dashed=1;" edge="1" parent="WIyWlLk6GJQsqaUBKTNV-1" source="oJ_CcM2kpAITmd0sQEhz-154" target="ZU-UUuN-moZJkXAPXbZI-13">
          <mxGeometry relative="1" as="geometry" />
        </mxCell>
        <mxCell id="oJ_CcM2kpAITmd0sQEhz-154" value="&lt;p style=&quot;margin:0px;margin-top:4px;text-align:center;&quot;&gt;&lt;b&gt;PlanetSystem&lt;/b&gt;&lt;/p&gt;&lt;hr size=&quot;1&quot;&gt;&lt;p style=&quot;margin:0px;margin-left:4px;&quot;&gt;+ planets: List&amp;lt;Planet&amp;gt;&lt;/p&gt;&lt;p style=&quot;margin:0px;margin-left:4px;&quot;&gt;+ galaxy: Galaxy&lt;/p&gt;&lt;p style=&quot;margin:0px;margin-left:4px;&quot;&gt;+ connectedSystems: List&amp;lt;PlanetSystem&amp;gt;&lt;br&gt;&lt;/p&gt;&lt;hr size=&quot;1&quot;&gt;&lt;p style=&quot;margin:0px;margin-left:4px;&quot;&gt;&lt;br&gt;&lt;/p&gt;" style="verticalAlign=top;align=left;overflow=fill;fontSize=12;fontFamily=Helvetica;html=1;whiteSpace=wrap;" parent="WIyWlLk6GJQsqaUBKTNV-1" vertex="1">
          <mxGeometry x="1107.5" y="2560" width="245" height="100" as="geometry" />
        </mxCell>
        <mxCell id="oJ_CcM2kpAITmd0sQEhz-156" value="" style="edgeStyle=orthogonalEdgeStyle;rounded=0;orthogonalLoop=1;jettySize=auto;html=1;endArrow=none;endFill=0;startArrow=none;startFill=0;exitX=0.5;exitY=1;exitDx=0;exitDy=0;" parent="WIyWlLk6GJQsqaUBKTNV-1" source="oJ_CcM2kpAITmd0sQEhz-154" target="oJ_CcM2kpAITmd0sQEhz-157" edge="1">
          <mxGeometry relative="1" as="geometry">
            <mxPoint x="1220" y="2650" as="sourcePoint" />
          </mxGeometry>
        </mxCell>
        <mxCell id="oJ_CcM2kpAITmd0sQEhz-160" value="" style="edgeStyle=orthogonalEdgeStyle;rounded=0;orthogonalLoop=1;jettySize=auto;html=1;endArrow=none;endFill=0;" parent="WIyWlLk6GJQsqaUBKTNV-1" source="oJ_CcM2kpAITmd0sQEhz-157" target="oJ_CcM2kpAITmd0sQEhz-159" edge="1">
          <mxGeometry relative="1" as="geometry" />
        </mxCell>
        <mxCell id="oJ_CcM2kpAITmd0sQEhz-173" style="edgeStyle=orthogonalEdgeStyle;rounded=0;orthogonalLoop=1;jettySize=auto;html=1;entryX=0;entryY=0.5;entryDx=0;entryDy=0;endArrow=block;endFill=0;" parent="WIyWlLk6GJQsqaUBKTNV-1" source="oJ_CcM2kpAITmd0sQEhz-157" target="oJ_CcM2kpAITmd0sQEhz-167" edge="1">
          <mxGeometry relative="1" as="geometry" />
        </mxCell>
        <mxCell id="oJ_CcM2kpAITmd0sQEhz-157" value="&lt;p style=&quot;margin:0px;margin-top:4px;text-align:center;&quot;&gt;&lt;b&gt;Planet&lt;/b&gt;&lt;/p&gt;&lt;hr size=&quot;1&quot;&gt;&lt;p style=&quot;margin:0px;margin-left:4px;&quot;&gt;+ stations: List&amp;lt;Station&amp;gt;&lt;/p&gt;&lt;p style=&quot;margin:0px;margin-left:4px;&quot;&gt;+ colonies: List&amp;lt;Colony&amp;gt;&lt;/p&gt;&lt;p style=&quot;margin:0px;margin-left:4px;&quot;&gt;+ satellites: :ist&amp;lt;Satellite&amp;gt;&lt;br&gt;&lt;/p&gt;&lt;p style=&quot;margin:0px;margin-left:4px;&quot;&gt;+ planetSystem: PlanetSystem&lt;/p&gt;&lt;hr size=&quot;1&quot;&gt;" style="verticalAlign=top;align=left;overflow=fill;fontSize=12;fontFamily=Helvetica;html=1;whiteSpace=wrap;" parent="WIyWlLk6GJQsqaUBKTNV-1" vertex="1">
          <mxGeometry x="1140" y="2730" width="180" height="100" as="geometry" />
        </mxCell>
        <mxCell id="oJ_CcM2kpAITmd0sQEhz-172" style="edgeStyle=orthogonalEdgeStyle;rounded=0;orthogonalLoop=1;jettySize=auto;html=1;entryX=0.46;entryY=1.005;entryDx=0;entryDy=0;entryPerimeter=0;endArrow=block;endFill=0;" parent="WIyWlLk6GJQsqaUBKTNV-1" source="oJ_CcM2kpAITmd0sQEhz-159" target="oJ_CcM2kpAITmd0sQEhz-167" edge="1">
          <mxGeometry relative="1" as="geometry">
            <mxPoint x="1750" y="3040" as="targetPoint" />
            <Array as="points">
              <mxPoint x="1100" y="3120" />
              <mxPoint x="1670" y="3120" />
              <mxPoint x="1670" y="2870" />
              <mxPoint x="1671" y="2870" />
            </Array>
          </mxGeometry>
        </mxCell>
        <mxCell id="oJ_CcM2kpAITmd0sQEhz-159" value="&lt;p style=&quot;margin:0px;margin-top:4px;text-align:center;&quot;&gt;&lt;b&gt;Station&lt;/b&gt;&lt;/p&gt;&lt;hr size=&quot;1&quot;&gt;&lt;p style=&quot;margin:0px;margin-left:4px;&quot;&gt;+ Satellites: List&amp;lt;Satellite&amp;gt;&lt;/p&gt;&lt;p style=&quot;margin:0px;margin-left:4px;&quot;&gt;+ planet: Planet&lt;br&gt;&lt;/p&gt;&lt;hr size=&quot;1&quot;&gt;" style="verticalAlign=top;align=left;overflow=fill;fontSize=12;fontFamily=Helvetica;html=1;whiteSpace=wrap;" parent="WIyWlLk6GJQsqaUBKTNV-1" vertex="1">
          <mxGeometry x="1020" y="2900" width="160" height="60" as="geometry" />
        </mxCell>
        <mxCell id="oJ_CcM2kpAITmd0sQEhz-168" style="edgeStyle=orthogonalEdgeStyle;rounded=0;orthogonalLoop=1;jettySize=auto;html=1;entryX=1;entryY=0.5;entryDx=0;entryDy=0;endArrow=diamondThin;endFill=1;" parent="WIyWlLk6GJQsqaUBKTNV-1" target="oJ_CcM2kpAITmd0sQEhz-167" edge="1">
          <mxGeometry relative="1" as="geometry">
            <mxPoint x="1890" y="2815" as="sourcePoint" />
            <Array as="points">
              <mxPoint x="1880" y="2815" />
            </Array>
          </mxGeometry>
        </mxCell>
        <mxCell id="oJ_CcM2kpAITmd0sQEhz-166" style="edgeStyle=orthogonalEdgeStyle;rounded=0;orthogonalLoop=1;jettySize=auto;html=1;entryX=0.5;entryY=1;entryDx=0;entryDy=0;endArrow=none;endFill=0;" parent="WIyWlLk6GJQsqaUBKTNV-1" source="oJ_CcM2kpAITmd0sQEhz-165" target="oJ_CcM2kpAITmd0sQEhz-157" edge="1">
          <mxGeometry relative="1" as="geometry" />
        </mxCell>
        <mxCell id="oJ_CcM2kpAITmd0sQEhz-174" style="edgeStyle=orthogonalEdgeStyle;rounded=0;orthogonalLoop=1;jettySize=auto;html=1;entryX=0;entryY=0.5;entryDx=0;entryDy=0;endArrow=block;endFill=0;" parent="WIyWlLk6GJQsqaUBKTNV-1" source="oJ_CcM2kpAITmd0sQEhz-165" target="oJ_CcM2kpAITmd0sQEhz-167" edge="1">
          <mxGeometry relative="1" as="geometry" />
        </mxCell>
        <mxCell id="oJ_CcM2kpAITmd0sQEhz-165" value="&lt;p style=&quot;margin:0px;margin-top:4px;text-align:center;&quot;&gt;&lt;b&gt;Satellite&lt;/b&gt;&lt;br&gt;&lt;/p&gt;&lt;hr size=&quot;1&quot;&gt;&lt;p style=&quot;margin:0px;margin-left:4px;&quot;&gt;+ planet: Planet&lt;br&gt;&lt;/p&gt;&lt;hr size=&quot;1&quot;&gt;&lt;p style=&quot;margin:0px;margin-left:4px;&quot;&gt;&lt;br&gt;&lt;/p&gt;" style="verticalAlign=top;align=left;overflow=fill;fontSize=12;fontFamily=Helvetica;html=1;whiteSpace=wrap;" parent="WIyWlLk6GJQsqaUBKTNV-1" vertex="1">
          <mxGeometry x="1270" y="2900" width="160" height="70" as="geometry" />
        </mxCell>
        <mxCell id="ZU-UUuN-moZJkXAPXbZI-20" style="edgeStyle=orthogonalEdgeStyle;rounded=0;orthogonalLoop=1;jettySize=auto;html=1;entryX=0.462;entryY=1.053;entryDx=0;entryDy=0;entryPerimeter=0;dashed=1;endArrow=block;endFill=0;" edge="1" parent="WIyWlLk6GJQsqaUBKTNV-1" source="oJ_CcM2kpAITmd0sQEhz-167" target="ZU-UUuN-moZJkXAPXbZI-13">
          <mxGeometry relative="1" as="geometry" />
        </mxCell>
        <mxCell id="oJ_CcM2kpAITmd0sQEhz-167" value="&lt;p style=&quot;margin:0px;margin-top:4px;text-align:center;&quot;&gt;&lt;b&gt;&amp;lt;&amp;lt;abstract&amp;gt;&amp;gt;&lt;/b&gt;&lt;/p&gt;&lt;p style=&quot;margin:0px;margin-top:4px;text-align:center;&quot;&gt;&lt;b&gt;Colonizable&lt;br&gt;&lt;/b&gt;&lt;/p&gt;&lt;hr size=&quot;1&quot;&gt;&lt;p style=&quot;margin:0px;margin-left:4px;&quot;&gt;+ colonies: List&amp;lt;Colony&amp;gt;&lt;/p&gt;&lt;p style=&quot;margin:0px;margin-left:4px;&quot;&gt;+ maxColonies: int&lt;/p&gt;&lt;div&gt;&amp;nbsp;+ onColonization(): void&lt;/div&gt;&lt;div&gt;&amp;nbsp;+ environment: Environment&lt;br&gt;&lt;/div&gt;&lt;hr size=&quot;1&quot;&gt;" style="verticalAlign=top;align=left;overflow=fill;fontSize=12;fontFamily=Helvetica;html=1;whiteSpace=wrap;" parent="WIyWlLk6GJQsqaUBKTNV-1" vertex="1">
          <mxGeometry x="1595" y="2760" width="165" height="130" as="geometry" />
        </mxCell>
        <mxCell id="oJ_CcM2kpAITmd0sQEhz-175" value="для станции максимум колоний = 1" style="shape=note;whiteSpace=wrap;html=1;backgroundOutline=1;darkOpacity=0.05;size=16;" parent="WIyWlLk6GJQsqaUBKTNV-1" vertex="1">
          <mxGeometry x="880" y="2990" width="110" height="60" as="geometry" />
        </mxCell>
        <mxCell id="oJ_CcM2kpAITmd0sQEhz-176" value="&lt;div&gt;максимум колонимй может изменяться&lt;/div&gt;" style="shape=note;whiteSpace=wrap;html=1;backgroundOutline=1;darkOpacity=0.05;size=20;" parent="WIyWlLk6GJQsqaUBKTNV-1" vertex="1">
          <mxGeometry x="1902.5" y="2908.75" width="135" height="72.5" as="geometry" />
        </mxCell>
        <mxCell id="oJ_CcM2kpAITmd0sQEhz-179" value="&lt;p style=&quot;margin:0px;margin-top:4px;text-align:center;&quot;&gt;&lt;b&gt;Colony&lt;/b&gt;&lt;/p&gt;&lt;hr size=&quot;1&quot;&gt;&lt;p style=&quot;margin:0px;margin-left:4px;&quot;&gt;+ controllingFaction: Faction&lt;/p&gt;&lt;p style=&quot;margin:0px;margin-left:4px;&quot;&gt;+ buildings: List&amp;lt;Building&amp;gt;&lt;/p&gt;&lt;p style=&quot;margin:0px;margin-left:4px;&quot;&gt;+ environment: Environment&lt;br&gt;&lt;/p&gt;&lt;p style=&quot;margin:0px;margin-left:4px;&quot;&gt;- resources: List&amp;lt;Container&amp;gt;&lt;/p&gt;&lt;p style=&quot;margin:0px;margin-left:4px;&quot;&gt;&lt;/p&gt;&lt;hr size=&quot;1&quot;&gt;&lt;p style=&quot;margin:0px;margin-left:4px;&quot;&gt;+ onBuild(): void&lt;/p&gt;" style="verticalAlign=top;align=left;overflow=fill;fontSize=12;fontFamily=Helvetica;html=1;whiteSpace=wrap;" parent="WIyWlLk6GJQsqaUBKTNV-1" vertex="1">
          <mxGeometry x="1890" y="2750" width="190" height="130" as="geometry" />
        </mxCell>
        <mxCell id="ZU-UUuN-moZJkXAPXbZI-12" style="edgeStyle=orthogonalEdgeStyle;rounded=0;orthogonalLoop=1;jettySize=auto;html=1;entryX=1;entryY=0.5;entryDx=0;entryDy=0;endArrow=none;endFill=0;" edge="1" parent="WIyWlLk6GJQsqaUBKTNV-1" source="oJ_CcM2kpAITmd0sQEhz-182" target="oJ_CcM2kpAITmd0sQEhz-179">
          <mxGeometry relative="1" as="geometry" />
        </mxCell>
        <mxCell id="oJ_CcM2kpAITmd0sQEhz-182" value="&lt;p style=&quot;margin:0px;margin-top:4px;text-align:center;&quot;&gt;&lt;i&gt;&amp;lt;&amp;lt;abstract&amp;gt;&amp;gt;&lt;/i&gt;&lt;/p&gt;&lt;p style=&quot;margin:0px;margin-top:4px;text-align:center;&quot;&gt;&lt;b&gt;Building&lt;/b&gt;&lt;br&gt;&lt;b&gt;&lt;/b&gt;&lt;/p&gt;&lt;hr size=&quot;1&quot;&gt;&lt;div&gt;+ colony: Colony&lt;/div&gt;&lt;div&gt;+ buildingCost: int&lt;br&gt;&lt;/div&gt;&lt;hr size=&quot;1&quot;&gt;&lt;p style=&quot;margin:0px;margin-left:4px;&quot;&gt;abstract work(): void&lt;/p&gt;&lt;p style=&quot;margin:0px;margin-left:4px;&quot;&gt;+ virtual build(): void&lt;/p&gt;" style="verticalAlign=top;align=left;overflow=fill;fontSize=12;fontFamily=Helvetica;html=1;whiteSpace=wrap;" parent="WIyWlLk6GJQsqaUBKTNV-1" vertex="1">
          <mxGeometry x="2550" y="2800" width="190" height="130" as="geometry" />
        </mxCell>
        <mxCell id="oJ_CcM2kpAITmd0sQEhz-199" style="edgeStyle=orthogonalEdgeStyle;rounded=0;orthogonalLoop=1;jettySize=auto;html=1;dashed=1;endArrow=block;endFill=0;" parent="WIyWlLk6GJQsqaUBKTNV-1" source="oJ_CcM2kpAITmd0sQEhz-198" edge="1">
          <mxGeometry relative="1" as="geometry">
            <mxPoint x="2730" y="2930" as="targetPoint" />
          </mxGeometry>
        </mxCell>
        <mxCell id="ZU-UUuN-moZJkXAPXbZI-2" style="edgeStyle=orthogonalEdgeStyle;rounded=0;orthogonalLoop=1;jettySize=auto;html=1;endArrow=block;endFill=0;dashed=1;" edge="1" parent="WIyWlLk6GJQsqaUBKTNV-1" source="oJ_CcM2kpAITmd0sQEhz-198">
          <mxGeometry relative="1" as="geometry">
            <mxPoint x="2420" y="2410" as="targetPoint" />
          </mxGeometry>
        </mxCell>
        <mxCell id="oJ_CcM2kpAITmd0sQEhz-198" value="&lt;p style=&quot;margin:0px;margin-top:4px;text-align:center;&quot;&gt;&lt;b&gt;ArtificialEnvironment&lt;/b&gt;&lt;/p&gt;&lt;hr size=&quot;1&quot;&gt;&lt;p style=&quot;margin:0px;margin-left:4px;&quot;&gt;&lt;br&gt;&lt;/p&gt;&lt;hr size=&quot;1&quot;&gt;&lt;p style=&quot;margin:0px;margin-left:4px;&quot;&gt;+ build(): void&lt;/p&gt;" style="verticalAlign=top;align=left;overflow=fill;fontSize=12;fontFamily=Helvetica;html=1;whiteSpace=wrap;" parent="WIyWlLk6GJQsqaUBKTNV-1" vertex="1">
          <mxGeometry x="2550" y="2970" width="160" height="90" as="geometry" />
        </mxCell>
        <mxCell id="oJ_CcM2kpAITmd0sQEhz-206" style="edgeStyle=orthogonalEdgeStyle;rounded=0;orthogonalLoop=1;jettySize=auto;html=1;dashed=1;endArrow=none;endFill=0;" parent="WIyWlLk6GJQsqaUBKTNV-1" source="oJ_CcM2kpAITmd0sQEhz-207" edge="1">
          <mxGeometry relative="1" as="geometry">
            <mxPoint x="2730" y="3010" as="targetPoint" />
          </mxGeometry>
        </mxCell>
        <mxCell id="oJ_CcM2kpAITmd0sQEhz-207" value="&lt;p style=&quot;margin:0px;margin-top:4px;text-align:center;&quot;&gt;&lt;b&gt;Housing&lt;/b&gt;&lt;/p&gt;&lt;hr size=&quot;1&quot;&gt;&lt;p style=&quot;margin:0px;margin-left:4px;&quot;&gt;&lt;br&gt;&lt;/p&gt;&lt;hr size=&quot;1&quot;&gt;" style="verticalAlign=top;align=left;overflow=fill;fontSize=12;fontFamily=Helvetica;html=1;whiteSpace=wrap;" parent="WIyWlLk6GJQsqaUBKTNV-1" vertex="1">
          <mxGeometry x="2550" y="3070" width="160" height="90" as="geometry" />
        </mxCell>
        <mxCell id="oJ_CcM2kpAITmd0sQEhz-208" style="edgeStyle=orthogonalEdgeStyle;rounded=0;orthogonalLoop=1;jettySize=auto;html=1;dashed=1;endArrow=none;endFill=0;" parent="WIyWlLk6GJQsqaUBKTNV-1" source="oJ_CcM2kpAITmd0sQEhz-209" edge="1">
          <mxGeometry relative="1" as="geometry">
            <mxPoint x="2730" y="3110" as="targetPoint" />
          </mxGeometry>
        </mxCell>
        <mxCell id="oJ_CcM2kpAITmd0sQEhz-209" value="&lt;p style=&quot;margin:0px;margin-top:4px;text-align:center;&quot;&gt;&lt;b&gt;Farm&lt;/b&gt;&lt;/p&gt;&lt;hr size=&quot;1&quot;&gt;&lt;p style=&quot;margin:0px;margin-left:4px;&quot;&gt;&lt;br&gt;&lt;/p&gt;&lt;hr size=&quot;1&quot;&gt;&lt;p style=&quot;margin:0px;margin-left:4px;&quot;&gt;&lt;br&gt;&lt;/p&gt;" style="verticalAlign=top;align=left;overflow=fill;fontSize=12;fontFamily=Helvetica;html=1;whiteSpace=wrap;" parent="WIyWlLk6GJQsqaUBKTNV-1" vertex="1">
          <mxGeometry x="2550" y="3170" width="160" height="90" as="geometry" />
        </mxCell>
        <mxCell id="oJ_CcM2kpAITmd0sQEhz-210" style="edgeStyle=orthogonalEdgeStyle;rounded=0;orthogonalLoop=1;jettySize=auto;html=1;dashed=1;endArrow=none;endFill=0;" parent="WIyWlLk6GJQsqaUBKTNV-1" source="oJ_CcM2kpAITmd0sQEhz-211" edge="1">
          <mxGeometry relative="1" as="geometry">
            <mxPoint x="2730" y="3210" as="targetPoint" />
          </mxGeometry>
        </mxCell>
        <mxCell id="oJ_CcM2kpAITmd0sQEhz-211" value="&lt;p style=&quot;margin:0px;margin-top:4px;text-align:center;&quot;&gt;&lt;b&gt;Beacon&lt;/b&gt;&lt;/p&gt;&lt;hr size=&quot;1&quot;&gt;&lt;p style=&quot;margin:0px;margin-left:4px;&quot;&gt;&lt;br&gt;&lt;/p&gt;&lt;hr size=&quot;1&quot;&gt;&lt;p style=&quot;margin:0px;margin-left:4px;&quot;&gt;&lt;br&gt;&lt;/p&gt;" style="verticalAlign=top;align=left;overflow=fill;fontSize=12;fontFamily=Helvetica;html=1;whiteSpace=wrap;" parent="WIyWlLk6GJQsqaUBKTNV-1" vertex="1">
          <mxGeometry x="2550" y="3270" width="160" height="90" as="geometry" />
        </mxCell>
        <mxCell id="oJ_CcM2kpAITmd0sQEhz-212" style="edgeStyle=orthogonalEdgeStyle;rounded=0;orthogonalLoop=1;jettySize=auto;html=1;dashed=1;endArrow=none;endFill=0;" parent="WIyWlLk6GJQsqaUBKTNV-1" source="oJ_CcM2kpAITmd0sQEhz-213" edge="1">
          <mxGeometry relative="1" as="geometry">
            <mxPoint x="2730" y="3310" as="targetPoint" />
          </mxGeometry>
        </mxCell>
        <mxCell id="oJ_CcM2kpAITmd0sQEhz-213" value="&lt;p style=&quot;margin:0px;margin-top:4px;text-align:center;&quot;&gt;&lt;b&gt;WaterGenerator&lt;/b&gt;&lt;/p&gt;&lt;hr size=&quot;1&quot;&gt;&lt;br&gt;&lt;hr size=&quot;1&quot;&gt;" style="verticalAlign=top;align=left;overflow=fill;fontSize=12;fontFamily=Helvetica;html=1;whiteSpace=wrap;" parent="WIyWlLk6GJQsqaUBKTNV-1" vertex="1">
          <mxGeometry x="2550" y="3370" width="160" height="90" as="geometry" />
        </mxCell>
        <mxCell id="oJ_CcM2kpAITmd0sQEhz-218" style="edgeStyle=orthogonalEdgeStyle;rounded=0;orthogonalLoop=1;jettySize=auto;html=1;entryX=0.994;entryY=0.331;entryDx=0;entryDy=0;dashed=1;endArrow=block;endFill=0;entryPerimeter=0;" parent="WIyWlLk6GJQsqaUBKTNV-1" source="oJ_CcM2kpAITmd0sQEhz-217" target="oJ_CcM2kpAITmd0sQEhz-182" edge="1">
          <mxGeometry relative="1" as="geometry">
            <Array as="points" />
          </mxGeometry>
        </mxCell>
        <mxCell id="oJ_CcM2kpAITmd0sQEhz-217" value="&lt;p style=&quot;margin:0px;margin-top:4px;text-align:center;&quot;&gt;&lt;b&gt;FoodGenerator&lt;/b&gt;&lt;/p&gt;&lt;hr size=&quot;1&quot;&gt;&lt;p style=&quot;margin:0px;margin-left:4px;&quot;&gt;&lt;br&gt;&lt;/p&gt;&lt;hr size=&quot;1&quot;&gt;&lt;p style=&quot;margin:0px;margin-left:4px;&quot;&gt;+ build(): void&lt;/p&gt;" style="verticalAlign=top;align=left;overflow=fill;fontSize=12;fontFamily=Helvetica;html=1;whiteSpace=wrap;" parent="WIyWlLk6GJQsqaUBKTNV-1" vertex="1">
          <mxGeometry x="2830" y="2811.1" width="160" height="90" as="geometry" />
        </mxCell>
        <mxCell id="oJ_CcM2kpAITmd0sQEhz-219" style="edgeStyle=orthogonalEdgeStyle;rounded=0;orthogonalLoop=1;jettySize=auto;html=1;dashed=1;endArrow=none;endFill=0;" parent="WIyWlLk6GJQsqaUBKTNV-1" source="oJ_CcM2kpAITmd0sQEhz-220" edge="1">
          <mxGeometry relative="1" as="geometry">
            <mxPoint x="2790" y="2860" as="targetPoint" />
            <Array as="points">
              <mxPoint x="2790" y="2965" />
            </Array>
          </mxGeometry>
        </mxCell>
        <mxCell id="oJ_CcM2kpAITmd0sQEhz-220" value="&lt;p style=&quot;margin:0px;margin-top:4px;text-align:center;&quot;&gt;&lt;b&gt;OilGenerator&lt;/b&gt;&lt;/p&gt;&lt;hr size=&quot;1&quot;&gt;&lt;p style=&quot;margin:0px;margin-left:4px;&quot;&gt;&lt;br&gt;&lt;/p&gt;&lt;hr size=&quot;1&quot;&gt;&lt;p style=&quot;margin:0px;margin-left:4px;&quot;&gt;&lt;br&gt;&lt;/p&gt;" style="verticalAlign=top;align=left;overflow=fill;fontSize=12;fontFamily=Helvetica;html=1;whiteSpace=wrap;" parent="WIyWlLk6GJQsqaUBKTNV-1" vertex="1">
          <mxGeometry x="2830" y="2920" width="160" height="90" as="geometry" />
        </mxCell>
        <mxCell id="oJ_CcM2kpAITmd0sQEhz-226" style="edgeStyle=orthogonalEdgeStyle;rounded=0;orthogonalLoop=1;jettySize=auto;html=1;dashed=1;endArrow=none;endFill=0;" parent="WIyWlLk6GJQsqaUBKTNV-1" source="oJ_CcM2kpAITmd0sQEhz-227" edge="1">
          <mxGeometry relative="1" as="geometry">
            <mxPoint x="2790" y="2960" as="targetPoint" />
          </mxGeometry>
        </mxCell>
        <mxCell id="oJ_CcM2kpAITmd0sQEhz-227" value="&lt;p style=&quot;margin:0px;margin-top:4px;text-align:center;&quot;&gt;&lt;b&gt;GasGenerator&lt;/b&gt;&lt;/p&gt;&lt;hr size=&quot;1&quot;&gt;&lt;p style=&quot;margin:0px;margin-left:4px;&quot;&gt;&lt;br&gt;&lt;/p&gt;&lt;hr size=&quot;1&quot;&gt;&lt;p style=&quot;margin:0px;margin-left:4px;&quot;&gt;&lt;br&gt;&lt;/p&gt;" style="verticalAlign=top;align=left;overflow=fill;fontSize=12;fontFamily=Helvetica;html=1;whiteSpace=wrap;" parent="WIyWlLk6GJQsqaUBKTNV-1" vertex="1">
          <mxGeometry x="2830" y="3020" width="160" height="90" as="geometry" />
        </mxCell>
        <mxCell id="oJ_CcM2kpAITmd0sQEhz-228" style="edgeStyle=orthogonalEdgeStyle;rounded=0;orthogonalLoop=1;jettySize=auto;html=1;dashed=1;endArrow=none;endFill=0;" parent="WIyWlLk6GJQsqaUBKTNV-1" source="oJ_CcM2kpAITmd0sQEhz-229" edge="1">
          <mxGeometry relative="1" as="geometry">
            <mxPoint x="2790" y="3060" as="targetPoint" />
          </mxGeometry>
        </mxCell>
        <mxCell id="oJ_CcM2kpAITmd0sQEhz-229" value="&lt;p style=&quot;margin:0px;margin-top:4px;text-align:center;&quot;&gt;&lt;b&gt;MineralGenerator&lt;/b&gt;&lt;/p&gt;&lt;hr size=&quot;1&quot;&gt;&lt;p style=&quot;margin:0px;margin-left:4px;&quot;&gt;&lt;br&gt;&lt;/p&gt;&lt;hr size=&quot;1&quot;&gt;" style="verticalAlign=top;align=left;overflow=fill;fontSize=12;fontFamily=Helvetica;html=1;whiteSpace=wrap;" parent="WIyWlLk6GJQsqaUBKTNV-1" vertex="1">
          <mxGeometry x="2830" y="3120" width="160" height="90" as="geometry" />
        </mxCell>
        <mxCell id="oJ_CcM2kpAITmd0sQEhz-230" style="edgeStyle=orthogonalEdgeStyle;rounded=0;orthogonalLoop=1;jettySize=auto;html=1;dashed=1;endArrow=none;endFill=0;" parent="WIyWlLk6GJQsqaUBKTNV-1" source="oJ_CcM2kpAITmd0sQEhz-231" edge="1">
          <mxGeometry relative="1" as="geometry">
            <mxPoint x="2790" y="3160" as="targetPoint" />
          </mxGeometry>
        </mxCell>
        <mxCell id="oJ_CcM2kpAITmd0sQEhz-231" value="&lt;p style=&quot;margin:0px;margin-top:4px;text-align:center;&quot;&gt;&lt;b&gt;FuelGenerator&lt;br&gt;&lt;/b&gt;&lt;/p&gt;&lt;hr size=&quot;1&quot;&gt;&lt;p style=&quot;margin:0px;margin-left:4px;&quot;&gt;&lt;br&gt;&lt;/p&gt;&lt;hr size=&quot;1&quot;&gt;&lt;p style=&quot;margin:0px;margin-left:4px;&quot;&gt;+ build(): void&lt;/p&gt;" style="verticalAlign=top;align=left;overflow=fill;fontSize=12;fontFamily=Helvetica;html=1;whiteSpace=wrap;" parent="WIyWlLk6GJQsqaUBKTNV-1" vertex="1">
          <mxGeometry x="2830" y="3220" width="160" height="90" as="geometry" />
        </mxCell>
        <mxCell id="oJ_CcM2kpAITmd0sQEhz-234" value="&lt;p style=&quot;margin:0px;margin-top:4px;text-align:center;&quot;&gt;&lt;i&gt;&amp;lt;&amp;lt;Interface&amp;gt;&amp;gt;&lt;/i&gt;&lt;b&gt;&lt;br&gt;&lt;/b&gt;&lt;/p&gt;&lt;p style=&quot;margin:0px;margin-top:4px;text-align:center;&quot;&gt;&lt;b&gt;ShipState&lt;/b&gt;&lt;br&gt;&lt;/p&gt;&lt;hr size=&quot;1&quot;&gt;&lt;hr size=&quot;1&quot;&gt;&lt;p style=&quot;margin:0px;margin-left:4px;&quot;&gt;&amp;nbsp;goUp(Ship, Level): void&lt;br&gt;&amp;nbsp;goDown(Ship, Level): void&lt;/p&gt;" style="verticalAlign=top;align=left;overflow=fill;fontSize=12;fontFamily=Helvetica;html=1;whiteSpace=wrap;" parent="WIyWlLk6GJQsqaUBKTNV-1" vertex="1">
          <mxGeometry x="2130" y="1570" width="190" height="100" as="geometry" />
        </mxCell>
        <mxCell id="oJ_CcM2kpAITmd0sQEhz-235" value="&lt;div&gt;галактика в данном случае представлена в виду, подобном папкам,&lt;/div&gt;&lt;div&gt;то есть существует корень и нижние уровни, можно передвигаться на уровень вверх или вниз&lt;/div&gt;&lt;div&gt;&lt;br&gt;&lt;/div&gt;" style="shape=note;whiteSpace=wrap;html=1;backgroundOutline=1;darkOpacity=0.05;size=18;" parent="WIyWlLk6GJQsqaUBKTNV-1" vertex="1">
          <mxGeometry x="2140" y="1420" width="190" height="130" as="geometry" />
        </mxCell>
        <mxCell id="ZU-UUuN-moZJkXAPXbZI-0" value="&lt;p style=&quot;margin:0px;margin-top:4px;text-align:center;&quot;&gt;&lt;i&gt;&amp;lt;&amp;lt;Interface&amp;gt;&amp;gt;&lt;/i&gt;&lt;b&gt;&lt;br&gt;&lt;/b&gt;&lt;/p&gt;&lt;p style=&quot;margin:0px;margin-top:4px;text-align:center;&quot;&gt;&lt;b&gt;Environment&lt;/b&gt;&lt;br&gt;&lt;b&gt;&lt;/b&gt;&lt;/p&gt;&lt;hr size=&quot;1&quot;&gt;&lt;hr size=&quot;1&quot;&gt;&lt;p style=&quot;margin:0px;margin-left:4px;&quot;&gt;+ onLanding(Ship): void&lt;/p&gt;&lt;p style=&quot;margin:0px;margin-left:4px;&quot;&gt;+ onBuild(): void&lt;br&gt;&lt;/p&gt;" style="verticalAlign=top;align=left;overflow=fill;fontSize=12;fontFamily=Helvetica;html=1;whiteSpace=wrap;" vertex="1" parent="WIyWlLk6GJQsqaUBKTNV-1">
          <mxGeometry x="2320" y="2320" width="200" height="90" as="geometry" />
        </mxCell>
        <mxCell id="ZU-UUuN-moZJkXAPXbZI-1" style="edgeStyle=orthogonalEdgeStyle;rounded=0;orthogonalLoop=1;jettySize=auto;html=1;exitX=0.5;exitY=1;exitDx=0;exitDy=0;" edge="1" parent="WIyWlLk6GJQsqaUBKTNV-1" source="ZU-UUuN-moZJkXAPXbZI-0" target="ZU-UUuN-moZJkXAPXbZI-0">
          <mxGeometry relative="1" as="geometry" />
        </mxCell>
        <mxCell id="ZU-UUuN-moZJkXAPXbZI-3" value="&lt;p style=&quot;margin:0px;margin-top:4px;text-align:center;&quot;&gt;&lt;b&gt;VitalEnvironment&lt;/b&gt;&lt;br&gt;&lt;/p&gt;&lt;hr size=&quot;1&quot;&gt;&lt;p style=&quot;margin:0px;margin-left:4px;&quot;&gt;&lt;br&gt;&lt;/p&gt;&lt;hr size=&quot;1&quot;&gt;&lt;p style=&quot;margin:0px;margin-left:4px;&quot;&gt;&lt;br&gt;&lt;/p&gt;" style="verticalAlign=top;align=left;overflow=fill;fontSize=12;fontFamily=Helvetica;html=1;whiteSpace=wrap;" vertex="1" parent="WIyWlLk6GJQsqaUBKTNV-1">
          <mxGeometry x="2230" y="2480" width="160" height="90" as="geometry" />
        </mxCell>
        <mxCell id="ZU-UUuN-moZJkXAPXbZI-4" value="&lt;p style=&quot;margin:0px;margin-top:4px;text-align:center;&quot;&gt;&lt;b&gt;HabitableEnvironment&lt;/b&gt;&lt;br&gt;&lt;/p&gt;&lt;hr size=&quot;1&quot;&gt;&lt;p style=&quot;margin:0px;margin-left:4px;&quot;&gt;&lt;br&gt;&lt;/p&gt;&lt;hr size=&quot;1&quot;&gt;&lt;p style=&quot;margin:0px;margin-left:4px;&quot;&gt;&lt;br&gt;&lt;/p&gt;" style="verticalAlign=top;align=left;overflow=fill;fontSize=12;fontFamily=Helvetica;html=1;whiteSpace=wrap;" vertex="1" parent="WIyWlLk6GJQsqaUBKTNV-1">
          <mxGeometry x="2230" y="2590" width="160" height="90" as="geometry" />
        </mxCell>
        <mxCell id="ZU-UUuN-moZJkXAPXbZI-6" value="&lt;p style=&quot;margin:0px;margin-top:4px;text-align:center;&quot;&gt;&lt;b&gt;UnHabitableEnvironment&lt;/b&gt;&lt;br&gt;&lt;/p&gt;&lt;hr size=&quot;1&quot;&gt;&lt;p style=&quot;margin:0px;margin-left:4px;&quot;&gt;&lt;br&gt;&lt;/p&gt;&lt;hr size=&quot;1&quot;&gt;&lt;p style=&quot;margin:0px;margin-left:4px;&quot;&gt;&lt;br&gt;&lt;/p&gt;" style="verticalAlign=top;align=left;overflow=fill;fontSize=12;fontFamily=Helvetica;html=1;whiteSpace=wrap;" vertex="1" parent="WIyWlLk6GJQsqaUBKTNV-1">
          <mxGeometry x="2230" y="2700" width="160" height="90" as="geometry" />
        </mxCell>
        <mxCell id="ZU-UUuN-moZJkXAPXbZI-7" value="" style="endArrow=none;dashed=1;html=1;rounded=0;" edge="1" parent="WIyWlLk6GJQsqaUBKTNV-1">
          <mxGeometry width="50" height="50" relative="1" as="geometry">
            <mxPoint x="2390" y="2530" as="sourcePoint" />
            <mxPoint x="2420" y="2530" as="targetPoint" />
          </mxGeometry>
        </mxCell>
        <mxCell id="ZU-UUuN-moZJkXAPXbZI-8" value="" style="endArrow=none;dashed=1;html=1;rounded=0;" edge="1" parent="WIyWlLk6GJQsqaUBKTNV-1">
          <mxGeometry width="50" height="50" relative="1" as="geometry">
            <mxPoint x="2390" y="2634.66" as="sourcePoint" />
            <mxPoint x="2420" y="2634.66" as="targetPoint" />
          </mxGeometry>
        </mxCell>
        <mxCell id="ZU-UUuN-moZJkXAPXbZI-9" value="" style="endArrow=none;dashed=1;html=1;rounded=0;" edge="1" parent="WIyWlLk6GJQsqaUBKTNV-1">
          <mxGeometry width="50" height="50" relative="1" as="geometry">
            <mxPoint x="2390" y="2750" as="sourcePoint" />
            <mxPoint x="2420" y="2750" as="targetPoint" />
          </mxGeometry>
        </mxCell>
        <mxCell id="ZU-UUuN-moZJkXAPXbZI-11" value="&lt;div&gt;&lt;b&gt;Примечание:&lt;/b&gt;&lt;/div&gt;&lt;b&gt;методы вроде onEvent, как правило, предполагают использование событий&lt;/b&gt;" style="shape=note;whiteSpace=wrap;html=1;backgroundOutline=1;darkOpacity=0.05;size=17;fillColor=#f8cecc;strokeColor=#b85450;" vertex="1" parent="WIyWlLk6GJQsqaUBKTNV-1">
          <mxGeometry x="4030" y="310" width="190" height="80" as="geometry" />
        </mxCell>
        <mxCell id="ZU-UUuN-moZJkXAPXbZI-13" value="«interface»&lt;br&gt;&lt;b&gt;Level&lt;/b&gt;" style="html=1;whiteSpace=wrap;" vertex="1" parent="WIyWlLk6GJQsqaUBKTNV-1">
          <mxGeometry x="1580" y="2580" width="110" height="50" as="geometry" />
        </mxCell>
        <mxCell id="ZU-UUuN-moZJkXAPXbZI-25" style="edgeStyle=orthogonalEdgeStyle;rounded=0;orthogonalLoop=1;jettySize=auto;html=1;endArrow=block;endFill=0;dashed=1;" edge="1" parent="WIyWlLk6GJQsqaUBKTNV-1" source="ZU-UUuN-moZJkXAPXbZI-23" target="oJ_CcM2kpAITmd0sQEhz-234">
          <mxGeometry relative="1" as="geometry" />
        </mxCell>
        <mxCell id="ZU-UUuN-moZJkXAPXbZI-23" value="&lt;p style=&quot;margin:0px;margin-top:4px;text-align:center;&quot;&gt;&lt;b&gt;InSpaceState&lt;/b&gt;&lt;/p&gt;&lt;hr size=&quot;1&quot;&gt;&lt;p style=&quot;margin:0px;margin-left:4px;&quot;&gt;&lt;br&gt;&lt;/p&gt;&lt;hr size=&quot;1&quot;&gt;&lt;p style=&quot;margin:0px;margin-left:4px;&quot;&gt;+ goUp(Ship, PlanetSystem): void&lt;br&gt;+ goDown(Ship, Colonizable): void&lt;/p&gt;" style="verticalAlign=top;align=left;overflow=fill;fontSize=12;fontFamily=Helvetica;html=1;whiteSpace=wrap;" vertex="1" parent="WIyWlLk6GJQsqaUBKTNV-1">
          <mxGeometry x="1850" y="1565" width="200" height="110" as="geometry" />
        </mxCell>
        <mxCell id="ZU-UUuN-moZJkXAPXbZI-24" value="&lt;div&gt;некоторые постройки невозможно построить без жизнеспособной&lt;/div&gt;&lt;div&gt;среды&lt;br&gt;&lt;/div&gt;" style="shape=note;whiteSpace=wrap;html=1;backgroundOutline=1;darkOpacity=0.05;size=15;" vertex="1" parent="WIyWlLk6GJQsqaUBKTNV-1">
          <mxGeometry x="2560" y="2670" width="150" height="90" as="geometry" />
        </mxCell>
        <mxCell id="ZU-UUuN-moZJkXAPXbZI-27" style="edgeStyle=orthogonalEdgeStyle;rounded=0;orthogonalLoop=1;jettySize=auto;html=1;dashed=1;endArrow=none;endFill=0;" edge="1" parent="WIyWlLk6GJQsqaUBKTNV-1" source="ZU-UUuN-moZJkXAPXbZI-26">
          <mxGeometry relative="1" as="geometry">
            <mxPoint x="2100" y="1620" as="targetPoint" />
          </mxGeometry>
        </mxCell>
        <mxCell id="ZU-UUuN-moZJkXAPXbZI-26" value="&lt;p style=&quot;margin:0px;margin-top:4px;text-align:center;&quot;&gt;&lt;b&gt;OnSurfaceState&lt;/b&gt;&lt;/p&gt;&lt;hr size=&quot;1&quot;&gt;&lt;p style=&quot;margin:0px;margin-left:4px;&quot;&gt;&lt;br&gt;&lt;/p&gt;&lt;hr size=&quot;1&quot;&gt;&lt;p style=&quot;margin:0px;margin-left:4px;&quot;&gt;+ goUp(Ship, PlanetSystem): void&lt;br&gt;+ goDown(Ship, Colonizable): void&lt;/p&gt;" style="verticalAlign=top;align=left;overflow=fill;fontSize=12;fontFamily=Helvetica;html=1;whiteSpace=wrap;" vertex="1" parent="WIyWlLk6GJQsqaUBKTNV-1">
          <mxGeometry x="1850" y="1700" width="200" height="110" as="geometry" />
        </mxCell>
        <mxCell id="ZU-UUuN-moZJkXAPXbZI-28" value="&lt;div&gt;&amp;lt;&amp;lt;struct&amp;gt;&amp;gt;&lt;/div&gt;&lt;div&gt;Coordinates&lt;br&gt;&lt;/div&gt;" style="swimlane;fontStyle=0;childLayout=stackLayout;horizontal=1;startSize=26;fillColor=none;horizontalStack=0;resizeParent=1;resizeParentMax=0;resizeLast=0;collapsible=1;marginBottom=0;whiteSpace=wrap;html=1;" vertex="1" parent="WIyWlLk6GJQsqaUBKTNV-1">
          <mxGeometry x="2760" y="1380" width="140" height="78" as="geometry" />
        </mxCell>
        <mxCell id="ZU-UUuN-moZJkXAPXbZI-29" value="+ xCords: int" style="text;strokeColor=none;fillColor=none;align=left;verticalAlign=top;spacingLeft=4;spacingRight=4;overflow=hidden;rotatable=0;points=[[0,0.5],[1,0.5]];portConstraint=eastwest;whiteSpace=wrap;html=1;" vertex="1" parent="ZU-UUuN-moZJkXAPXbZI-28">
          <mxGeometry y="26" width="140" height="26" as="geometry" />
        </mxCell>
        <mxCell id="ZU-UUuN-moZJkXAPXbZI-30" value="+ yCords: int" style="text;strokeColor=none;fillColor=none;align=left;verticalAlign=top;spacingLeft=4;spacingRight=4;overflow=hidden;rotatable=0;points=[[0,0.5],[1,0.5]];portConstraint=eastwest;whiteSpace=wrap;html=1;" vertex="1" parent="ZU-UUuN-moZJkXAPXbZI-28">
          <mxGeometry y="52" width="140" height="26" as="geometry" />
        </mxCell>
        <mxCell id="ZU-UUuN-moZJkXAPXbZI-32" value="&lt;p style=&quot;margin:0px;margin-top:4px;text-align:center;&quot;&gt;&lt;b&gt;&amp;lt;&amp;lt;abstract&amp;gt;&amp;gt;&lt;/b&gt;&lt;/p&gt;&lt;p style=&quot;margin:0px;margin-top:4px;text-align:center;&quot;&gt;&lt;b&gt;Faction&lt;br&gt;&lt;/b&gt;&lt;/p&gt;&lt;hr size=&quot;1&quot;&gt;&lt;p style=&quot;margin:0px;margin-left:4px;&quot;&gt;+ relationship: int&lt;/p&gt;&lt;p style=&quot;margin:0px;margin-left:4px;&quot;&gt;+ npcList:: List&amp;lt;NPC&amp;gt;&lt;br&gt;&lt;/p&gt;&lt;hr size=&quot;1&quot;&gt;&lt;p style=&quot;margin:0px;margin-left:4px;&quot;&gt;abstract onGood(): void&lt;/p&gt;&lt;p style=&quot;margin:0px;margin-left:4px;&quot;&gt;abstract onBad(): void&lt;/p&gt;" style="verticalAlign=top;align=left;overflow=fill;fontSize=12;fontFamily=Helvetica;html=1;whiteSpace=wrap;" vertex="1" parent="WIyWlLk6GJQsqaUBKTNV-1">
          <mxGeometry x="3677.5" y="2560" width="200" height="130" as="geometry" />
        </mxCell>
        <mxCell id="ZU-UUuN-moZJkXAPXbZI-36" value="" style="endArrow=none;html=1;rounded=0;entryX=0.5;entryY=0;entryDx=0;entryDy=0;exitX=1;exitY=0.5;exitDx=0;exitDy=0;" edge="1" parent="WIyWlLk6GJQsqaUBKTNV-1" source="oJ_CcM2kpAITmd0sQEhz-234" target="oJ_CcM2kpAITmd0sQEhz-92">
          <mxGeometry width="50" height="50" relative="1" as="geometry">
            <mxPoint x="2650" y="1990" as="sourcePoint" />
            <mxPoint x="2770" y="1710" as="targetPoint" />
            <Array as="points">
              <mxPoint x="2830" y="1620" />
            </Array>
          </mxGeometry>
        </mxCell>
        <mxCell id="ZU-UUuN-moZJkXAPXbZI-37" value="отношение фракции к вам зависит от ваших действий" style="shape=note;whiteSpace=wrap;html=1;backgroundOutline=1;darkOpacity=0.05;size=14;" vertex="1" parent="WIyWlLk6GJQsqaUBKTNV-1">
          <mxGeometry x="3702.5" y="2460" width="80" height="90" as="geometry" />
        </mxCell>
        <mxCell id="ZU-UUuN-moZJkXAPXbZI-48" style="edgeStyle=orthogonalEdgeStyle;rounded=0;orthogonalLoop=1;jettySize=auto;html=1;entryX=1.006;entryY=0.568;entryDx=0;entryDy=0;entryPerimeter=0;endArrow=diamondThin;endFill=1;" edge="1" parent="WIyWlLk6GJQsqaUBKTNV-1" source="ZU-UUuN-moZJkXAPXbZI-38" target="ZU-UUuN-moZJkXAPXbZI-47">
          <mxGeometry relative="1" as="geometry" />
        </mxCell>
        <mxCell id="ZU-UUuN-moZJkXAPXbZI-38" value="&lt;p style=&quot;margin:0px;margin-top:4px;text-align:center;&quot;&gt;&lt;b&gt;Nomads&lt;/b&gt;&lt;br&gt;&lt;/p&gt;&lt;hr size=&quot;1&quot;&gt;&lt;div style=&quot;height:2px;&quot;&gt;&lt;/div&gt;" style="verticalAlign=top;align=left;overflow=fill;fontSize=12;fontFamily=Helvetica;html=1;whiteSpace=wrap;" vertex="1" parent="WIyWlLk6GJQsqaUBKTNV-1">
          <mxGeometry x="3677.5" y="2730" width="140" height="60" as="geometry" />
        </mxCell>
        <mxCell id="ZU-UUuN-moZJkXAPXbZI-50" style="edgeStyle=orthogonalEdgeStyle;rounded=0;orthogonalLoop=1;jettySize=auto;html=1;entryX=1.006;entryY=0.566;entryDx=0;entryDy=0;entryPerimeter=0;endArrow=none;endFill=0;" edge="1" parent="WIyWlLk6GJQsqaUBKTNV-1" source="ZU-UUuN-moZJkXAPXbZI-39" target="ZU-UUuN-moZJkXAPXbZI-47">
          <mxGeometry relative="1" as="geometry" />
        </mxCell>
        <mxCell id="ZU-UUuN-moZJkXAPXbZI-39" value="&lt;p style=&quot;margin:0px;margin-top:4px;text-align:center;&quot;&gt;&lt;b&gt;Imperium&lt;/b&gt;&lt;br&gt;&lt;/p&gt;&lt;hr size=&quot;1&quot;&gt;&lt;div style=&quot;height:2px;&quot;&gt;&lt;/div&gt;" style="verticalAlign=top;align=left;overflow=fill;fontSize=12;fontFamily=Helvetica;html=1;whiteSpace=wrap;" vertex="1" parent="WIyWlLk6GJQsqaUBKTNV-1">
          <mxGeometry x="3677.5" y="2810" width="140" height="60" as="geometry" />
        </mxCell>
        <mxCell id="ZU-UUuN-moZJkXAPXbZI-51" style="edgeStyle=orthogonalEdgeStyle;rounded=0;orthogonalLoop=1;jettySize=auto;html=1;entryX=0.992;entryY=0.559;entryDx=0;entryDy=0;entryPerimeter=0;endArrow=none;endFill=0;" edge="1" parent="WIyWlLk6GJQsqaUBKTNV-1" source="ZU-UUuN-moZJkXAPXbZI-40" target="ZU-UUuN-moZJkXAPXbZI-47">
          <mxGeometry relative="1" as="geometry" />
        </mxCell>
        <mxCell id="ZU-UUuN-moZJkXAPXbZI-40" value="&lt;p style=&quot;margin:0px;margin-top:4px;text-align:center;&quot;&gt;&lt;b&gt;Rebellion&lt;/b&gt;&lt;br&gt;&lt;/p&gt;&lt;hr size=&quot;1&quot;&gt;&lt;div style=&quot;height:2px;&quot;&gt;&lt;/div&gt;" style="verticalAlign=top;align=left;overflow=fill;fontSize=12;fontFamily=Helvetica;html=1;whiteSpace=wrap;" vertex="1" parent="WIyWlLk6GJQsqaUBKTNV-1">
          <mxGeometry x="3677.5" y="2890" width="140" height="60" as="geometry" />
        </mxCell>
        <mxCell id="ZU-UUuN-moZJkXAPXbZI-52" style="edgeStyle=orthogonalEdgeStyle;rounded=0;orthogonalLoop=1;jettySize=auto;html=1;entryX=0.995;entryY=0.566;entryDx=0;entryDy=0;entryPerimeter=0;endArrow=none;endFill=0;" edge="1" parent="WIyWlLk6GJQsqaUBKTNV-1" source="ZU-UUuN-moZJkXAPXbZI-41" target="ZU-UUuN-moZJkXAPXbZI-47">
          <mxGeometry relative="1" as="geometry" />
        </mxCell>
        <mxCell id="ZU-UUuN-moZJkXAPXbZI-41" value="&lt;p style=&quot;margin:0px;margin-top:4px;text-align:center;&quot;&gt;&lt;b&gt;Hive&lt;/b&gt;&lt;br&gt;&lt;/p&gt;&lt;hr size=&quot;1&quot;&gt;&lt;div style=&quot;height:2px;&quot;&gt;&lt;/div&gt;" style="verticalAlign=top;align=left;overflow=fill;fontSize=12;fontFamily=Helvetica;html=1;whiteSpace=wrap;" vertex="1" parent="WIyWlLk6GJQsqaUBKTNV-1">
          <mxGeometry x="3677.5" y="2970" width="140" height="60" as="geometry" />
        </mxCell>
        <mxCell id="ZU-UUuN-moZJkXAPXbZI-43" value="" style="endArrow=block;dashed=1;html=1;rounded=0;entryX=0.946;entryY=1;entryDx=0;entryDy=0;entryPerimeter=0;endFill=0;" edge="1" parent="WIyWlLk6GJQsqaUBKTNV-1" target="ZU-UUuN-moZJkXAPXbZI-32">
          <mxGeometry width="50" height="50" relative="1" as="geometry">
            <mxPoint x="3817.5" y="2770" as="sourcePoint" />
            <mxPoint x="3867.5" y="2720" as="targetPoint" />
            <Array as="points">
              <mxPoint x="3867.5" y="2770" />
            </Array>
          </mxGeometry>
        </mxCell>
        <mxCell id="ZU-UUuN-moZJkXAPXbZI-44" value="" style="endArrow=none;dashed=1;html=1;rounded=0;" edge="1" parent="WIyWlLk6GJQsqaUBKTNV-1">
          <mxGeometry width="50" height="50" relative="1" as="geometry">
            <mxPoint x="3817.5" y="2840" as="sourcePoint" />
            <mxPoint x="3866.5" y="2770" as="targetPoint" />
            <Array as="points">
              <mxPoint x="3867.5" y="2840" />
            </Array>
          </mxGeometry>
        </mxCell>
        <mxCell id="ZU-UUuN-moZJkXAPXbZI-45" value="" style="endArrow=none;dashed=1;html=1;rounded=0;" edge="1" parent="WIyWlLk6GJQsqaUBKTNV-1">
          <mxGeometry width="50" height="50" relative="1" as="geometry">
            <mxPoint x="3817.5" y="2920" as="sourcePoint" />
            <mxPoint x="3866.5" y="2840" as="targetPoint" />
            <Array as="points">
              <mxPoint x="3867.5" y="2920" />
            </Array>
          </mxGeometry>
        </mxCell>
        <mxCell id="ZU-UUuN-moZJkXAPXbZI-46" value="" style="endArrow=none;dashed=1;html=1;rounded=0;" edge="1" parent="WIyWlLk6GJQsqaUBKTNV-1">
          <mxGeometry width="50" height="50" relative="1" as="geometry">
            <mxPoint x="3817.5" y="3000" as="sourcePoint" />
            <mxPoint x="3866.5" y="2920" as="targetPoint" />
            <Array as="points">
              <mxPoint x="3867.5" y="3000" />
            </Array>
          </mxGeometry>
        </mxCell>
        <mxCell id="ZU-UUuN-moZJkXAPXbZI-47" value="&lt;p style=&quot;margin:0px;margin-top:4px;text-align:center;&quot;&gt;&lt;b&gt;&amp;lt;&amp;lt;static&amp;gt;&amp;gt;&lt;/b&gt;&lt;/p&gt;&lt;p style=&quot;margin:0px;margin-top:4px;text-align:center;&quot;&gt;&lt;b&gt;Factions&lt;br&gt;&lt;/b&gt;&lt;/p&gt;&lt;hr size=&quot;1&quot;&gt;&lt;p style=&quot;margin:0px;margin-left:4px;&quot;&gt;+ nomads: Nomads&lt;/p&gt;&lt;p style=&quot;margin:0px;margin-left:4px;&quot;&gt;+ imperium: Imperium&lt;/p&gt;&lt;p style=&quot;margin:0px;margin-left:4px;&quot;&gt;+ rebellion: Rebellion&lt;/p&gt;&lt;p style=&quot;margin:0px;margin-left:4px;&quot;&gt;+ hive: Hive&lt;br&gt;&lt;/p&gt;&lt;p style=&quot;margin:0px;margin-left:4px;&quot;&gt;&lt;/p&gt;&lt;p style=&quot;margin:0px;margin-left:4px;&quot;&gt;&lt;/p&gt;&lt;hr size=&quot;1&quot;&gt;&lt;p style=&quot;margin:0px;margin-left:4px;&quot;&gt;+ generateFactions(): void&lt;/p&gt;&lt;p style=&quot;margin:0px;margin-left:4px;&quot;&gt;+ generateNPC(): void&lt;br&gt;&lt;/p&gt;" style="verticalAlign=top;align=left;overflow=fill;fontSize=12;fontFamily=Helvetica;html=1;whiteSpace=wrap;" vertex="1" parent="WIyWlLk6GJQsqaUBKTNV-1">
          <mxGeometry x="3242.5" y="2795" width="157.5" height="155" as="geometry" />
        </mxCell>
      </root>
    </mxGraphModel>
  </diagram>
</mxfile>
